<svg width="32" height="32" viewBox="0 0 32 32" fill="none" xmlns="http://www.w3.org/2000/svg">
<path d="M14.5447 10.1821C14.5447 9.37877 15.1959 8.72754 15.9993 8.72754C16.8026 8.72754 17.4538 9.37877 17.4538 10.1821V14.5457H21.8175C22.6208 14.5457 23.272 15.1969 23.272 16.0003C23.272 16.8036 22.6208 17.4548 21.8175 17.4548H17.4538V21.8184C17.4538 22.6218 16.8026 23.273 15.9993 23.273C15.1959 23.273 14.5447 22.6218 14.5447 21.8184V17.4548H10.1811C9.37778 17.4548 8.72656 16.8036 8.72656 16.0003C8.72656 15.1969 9.37779 14.5457 10.1811 14.5457H14.5447V10.1821Z" fill="#021016"/>
<path fill-rule="evenodd" clip-rule="evenodd" d="M32 16C32 24.8365 24.8365 32 16 32C7.16345 32 0 24.8365 0 16C0 7.16345 7.16345 0 16 0C24.8365 0 32 7.16345 32 16ZM2.91903 16C2.91903 23.2244 8.77558 29.081 16 29.081C23.2244 29.081 29.081 23.2244 29.081 16C29.081 8.77558 23.2244 2.91903 16 2.91903C8.77558 2.91903 2.91903 8.77558 2.91903 16Z" fill="#021016"/>
</svg>
