<svg width="40" height="40" viewBox="0 0 40 40" fill="none" xmlns="http://www.w3.org/2000/svg">
<path d="M18.1809 12.7283C18.1809 11.7242 18.9949 10.9102 19.9991 10.9102C21.0033 10.9102 21.8173 11.7242 21.8173 12.7283V18.1829H27.2718C28.276 18.1829 29.09 18.9969 29.09 20.0011C29.09 21.0052 28.276 21.8192 27.2718 21.8192H21.8173V27.2738C21.8173 28.278 21.0033 29.092 19.9991 29.092C18.9949 29.092 18.1809 28.278 18.1809 27.2738V21.8192H12.7264C11.7222 21.8192 10.9082 21.0052 10.9082 20.0011C10.9082 18.9969 11.7222 18.1829 12.7264 18.1829H18.1809V12.7283Z" fill="white"/>
<path fill-rule="evenodd" clip-rule="evenodd" d="M40 20C40 31.0456 31.0456 40 20 40C8.95431 40 0 31.0456 0 20C0 8.95431 8.95431 0 20 0C31.0456 0 40 8.95431 40 20ZM3.64878 20C3.64878 29.0305 10.9695 36.3513 20 36.3513C29.0305 36.3513 36.3513 29.0305 36.3513 20C36.3513 10.9695 29.0305 3.64878 20 3.64878C10.9695 3.64878 3.64878 10.9695 3.64878 20Z" fill="white"/>
</svg>
