<svg width="106" height="100" viewBox="0 0 106 100" fill="none" xmlns="http://www.w3.org/2000/svg">
<path d="M0 50C0 63.2608 5.5498 75.9785 15.4285 85.3553C25.3072 94.7322 38.7056 100 52.6762 100C66.6468 100 80.0452 94.7322 89.9239 85.3553C99.8026 75.9785 105.352 63.2608 105.352 50C105.352 36.7392 99.8026 24.0215 89.9239 14.6447C80.0452 5.26784 66.6468 0 52.6762 0C38.7056 0 25.3072 5.26784 15.4285 14.6447C5.5498 24.0215 0 36.7392 0 50Z" fill="#FFF9BB"/>
<path d="M2.02203 63.7119C8.72713 64.6232 16.2553 65.625 16.2553 65.625L25.5148 57.2754C16.6794 57.2754 7.14952 52.3266 0.0390625 51.4775C0.168901 55.7092 0.850811 59.807 2.02203 63.7119ZM50.8926 59.8633C39.4725 59.8633 90.6398 64.3848 90.6398 64.3848L103.469 63.2486C104.424 59.9421 105.017 56.5508 105.239 53.1287C90.6742 53.1289 68.3142 59.8633 50.8926 59.8633Z" fill="#FFEA96"/>
<path d="M0.938477 59.375C5.56328 82.5059 26.9615 100 52.6764 100C78.3912 100 99.7897 82.5059 104.414 59.375H0.938477Z" fill="#D6EB76"/>
<path d="M68.8762 54.3227C68.8762 52.1648 67.0618 43.75 65.9142 43.75C65.849 43.75 65.7813 43.7844 65.7121 43.8363C65.6883 43.8543 65.6636 43.882 65.6393 43.9059C65.5888 43.9553 65.5427 44.0087 65.5014 44.0654C65.4712 44.1061 65.4414 44.1496 65.4111 44.1975C65.3683 44.2654 65.3249 44.3428 65.2815 44.4244C65.2498 44.4834 65.2187 44.5377 65.187 44.6033C65.1825 44.6129 65.178 44.6199 65.173 44.6299C65.1734 44.6304 65.1736 44.6309 65.1739 44.6314C64.1199 46.8414 62.9522 52.5914 62.9522 54.3227C62.9522 56.227 63.9858 57.2912 65.3529 57.5156L65.3527 57.5158C65.3698 57.5186 65.3879 57.5176 65.4051 57.5201V60.1652C65.4051 60.2934 65.4588 60.4164 65.5543 60.507C65.6498 60.5977 65.7793 60.6486 65.9144 60.6486C66.0495 60.6486 66.179 60.5977 66.2745 60.507C66.37 60.4164 66.4237 60.2934 66.4237 60.1652V57.5199C67.8159 57.3137 68.8762 56.2502 68.8762 54.3227ZM18.7019 56.4064C18.7019 54.9594 17.4852 49.3164 16.7157 49.3164C16.6718 49.3164 16.6266 49.3395 16.5801 49.3744C16.564 49.3863 16.5476 49.4051 16.5311 49.4209C16.4971 49.4541 16.4662 49.4899 16.4385 49.5279C16.4181 49.5553 16.3982 49.5844 16.378 49.6166C16.3492 49.6623 16.3202 49.7141 16.2912 49.7687C16.27 49.8082 16.249 49.8447 16.2278 49.8887C16.2247 49.8951 16.2218 49.8998 16.2183 49.9064L16.219 49.9076C15.5122 51.3896 14.729 55.2455 14.729 56.4064C14.729 57.6834 15.4222 58.3971 16.3389 58.5477H16.3387C16.3502 58.5496 16.3624 58.5488 16.3739 58.5506V60.3244C16.3739 60.4104 16.4099 60.4929 16.4739 60.5537C16.538 60.6145 16.6249 60.6486 16.7155 60.6486C16.8061 60.6486 16.8929 60.6145 16.957 60.5537C17.0211 60.4929 17.057 60.4104 17.057 60.3244V58.5506C17.9908 58.4121 18.7019 57.699 18.7019 56.4064Z" fill="#D6EB76"/>
<path d="M1.67847 62.4699C7.5175 84.0461 28.1233 99.9994 52.6762 99.9994C76.72 99.9994 96.9867 84.7037 103.3 63.8078C81.9755 63.0224 25.2233 61.856 1.67847 62.4699Z" fill="#CCE16B"/>
<path d="M9.80782 61.6986C9.68334 61.6986 9.56543 61.7219 9.45267 61.7557C9.09525 61.268 8.50244 60.9473 7.82897 60.9473C7.1557 60.9473 6.56268 61.268 6.20527 61.7557C6.09251 61.7219 5.97481 61.6986 5.85011 61.6986C5.53523 61.6986 5.23324 61.8174 5.01059 62.0287C4.78793 62.2401 4.66284 62.5267 4.66284 62.8256H10.9949C10.9949 62.6776 10.9643 62.531 10.9046 62.3943C10.845 62.2576 10.7576 62.1333 10.6473 62.0287C10.5371 61.924 10.4062 61.841 10.2622 61.7844C10.1181 61.7277 9.96374 61.6986 9.80782 61.6986ZM97.0472 64.0625C97.0472 63.0035 96.1427 62.1449 95.027 62.1449C94.8587 62.1449 94.6976 62.1701 94.5412 62.207C94.014 61.6666 93.2667 61.323 92.4296 61.323C90.8357 61.323 89.5437 62.5494 89.5437 64.0623H97.0472V64.0625Z" fill="#CCE16B"/>
<path d="M36.2149 64.0625H18.1074V50.625L26.3383 45.9375L36.2149 50.625V64.0625Z" fill="#FFFCEC"/>
<path d="M18.1074 51.4229V54.1557L27.227 48.9617L36.2149 54.0807V51.3477L30.9927 48.3734L26.8848 46.4238L18.1074 51.4229Z" fill="#FF8562"/>
<path d="M36.4689 52.5668L27.2271 47.3031L17.9853 52.5668L16.7153 50.557L27.2271 44.5703L37.7389 50.557L36.4689 52.5668Z" fill="#FF8562"/>
<path d="M64.1991 46.3379L44.4455 36.9141L36.2148 41.8457V64.0625H64.1991V46.3379Z" fill="#FFFCEC"/>
<path d="M36.2148 41.6891V44.5059L44.513 39.2547L64.1991 49.3158V46.6547L44.378 36.5234L36.2148 41.6891Z" fill="#FF8562"/>
<path d="M61.7613 25.426C61.2903 25.426 60.845 25.5141 60.4184 25.6416C59.067 23.7975 56.8249 22.585 54.2788 22.585C51.7328 22.585 49.4908 23.7975 48.1391 25.6416C47.7126 25.5139 47.2673 25.426 46.7963 25.426C44.3168 25.426 42.3069 27.3338 42.3069 29.6873H66.2507C66.2507 27.3338 64.2408 25.426 61.7613 25.426Z" fill="#FFEB97"/>
<path d="M91.4233 27.9119C91.1289 27.9119 90.8507 27.967 90.584 28.0467C89.7393 26.8941 88.3381 26.1363 86.7469 26.1363C85.1557 26.1363 83.7544 26.8941 82.9097 28.0467C82.6431 27.9668 82.3649 27.9119 82.0704 27.9119C80.5208 27.9119 79.2646 29.1043 79.2646 30.5752H94.2292C94.2294 29.1043 92.973 27.9119 91.4233 27.9119ZM46.9148 21.0938C46.9148 18.0734 44.3353 15.625 41.1534 15.625C40.6731 15.625 40.2141 15.6971 39.768 15.8021C38.2646 14.2611 36.1331 13.2812 33.7458 13.2812C29.2002 13.2812 25.5151 16.7791 25.5151 21.0938H46.9148Z" fill="#FFF1A9"/>
<path d="M54.0054 17.1871C54.0054 15.301 52.3947 13.7721 50.4076 13.7721C50.1078 13.7721 49.821 13.8172 49.5426 13.8828C48.6038 12.9205 47.2727 12.3086 45.782 12.3086C42.9434 12.3086 40.6423 14.4928 40.6423 17.1871H54.0054ZM73.9454 14.7479C73.9454 13.1766 72.6036 11.9029 70.9482 11.9029C70.6984 11.9029 70.4595 11.9404 70.2274 11.9951C69.4453 11.1934 68.3364 10.6836 67.0946 10.6836C64.73 10.6836 62.8128 12.5031 62.8128 14.7479H73.9454ZM85.5115 28.3555C85.5115 27.1205 84.4568 26.1193 83.1557 26.1193C82.9594 26.1193 82.7715 26.1488 82.5892 26.1918C81.9746 25.5617 81.103 25.1611 80.1268 25.1611C78.2682 25.1611 76.7615 26.5912 76.7615 28.3555H85.5115Z" fill="#FFF1A9"/>
<path d="M17.9792 32.1266C17.9792 30.2404 19.59 28.7115 21.5771 28.7115C21.8769 28.7115 22.1637 28.7566 22.4421 28.8223C23.3808 27.86 24.7119 27.248 26.2027 27.248C29.0412 27.248 31.3423 29.4322 31.3423 32.1266H17.9792ZM57.9905 26.31C57.9905 24.5953 59.455 23.2055 61.2612 23.2055C61.5338 23.2055 61.7945 23.2465 62.0476 23.3061C62.9011 22.4313 64.1112 21.875 65.4664 21.875C68.0469 21.875 70.139 23.8607 70.139 26.3102H57.9905V26.31Z" fill="#FFEB97"/>
<path d="M65.2601 48.1775L44.5131 37.5742L35.2536 43.4336L33.884 41.4834L44.3781 34.8428L66.4305 46.1145L65.2601 48.1775Z" fill="#FF8562"/>
<path d="M41.5698 54.2988H48.0134V64.0631H41.5698V54.2988Z" fill="#BF9672"/>
<path d="M40.6763 46.7285H48.9069V51.9043H40.6763V46.7285Z" fill="#63A0B5"/>
<path d="M49.3181 52.2949H40.2644V46.3379H49.3181V52.2949ZM41.0875 51.5137H48.4951V47.1191H41.0875V51.5137Z" fill="#4185A6"/>
<path d="M44.3799 46.7285H45.2029V51.9043H44.3799V46.7285Z" fill="#4185A6"/>
<path d="M51.4451 46.7285H59.6757V51.9043H51.4451V46.7285Z" fill="#63A0B5"/>
<path d="M60.0869 52.2949H51.0332V46.3379H60.0869V52.2949ZM51.8563 51.5137H59.2639V47.1191H51.8563V51.5137Z" fill="#4185A6"/>
<path d="M55.1484 46.7285H55.9715V51.9043H55.1484V46.7285Z" fill="#4185A6"/>
<path d="M51.4451 54.6875H59.6757V59.8633H51.4451V54.6875Z" fill="#63A0B5"/>
<path d="M60.0869 60.2539H51.0332V54.2969H60.0869V60.2539ZM51.8563 59.4727H59.2639V55.0781H51.8563V59.4727Z" fill="#4185A6"/>
<path d="M55.1484 54.6875H55.9715V59.8633H55.1484V54.6875Z" fill="#4185A6"/>
<path d="M23.1123 54.6875H31.343V59.8633H23.1123V54.6875Z" fill="#63A0B5"/>
<path d="M31.7537 60.2539H22.7V54.2969H31.7537V60.2539ZM23.523 59.4727H30.9306V55.0781H23.523V59.4727Z" fill="#4185A6"/>
<path d="M26.8154 54.6875H27.6385V59.8633H26.8154V54.6875Z" fill="#4185A6"/>
<path d="M76.0195 64.3846C75.906 64.3846 75.7937 64.3635 75.6888 64.3223C75.584 64.2811 75.4887 64.2207 75.4085 64.1446C75.3282 64.0685 75.2646 63.9781 75.2211 63.8786C75.1777 63.7792 75.1553 63.6725 75.1553 63.5648V54.7357C75.1553 54.283 75.5419 53.916 76.0195 53.916C76.4971 53.916 76.8837 54.283 76.8837 54.7357V63.5648C76.8837 63.6725 76.8613 63.7792 76.8179 63.8786C76.7744 63.9781 76.7107 64.0685 76.6305 64.1446C76.5502 64.2207 76.455 64.2811 76.3501 64.3223C76.2453 64.3635 76.1329 64.3846 76.0195 64.3846Z" fill="#828240"/>
<path d="M82.147 52.4463C82.147 56.91 79.4036 59.1506 76.0193 59.1506C72.6351 59.1506 69.8916 56.91 69.8916 52.4463C69.8916 47.9826 73.6452 30.5752 76.0193 30.5752C78.3935 30.5752 82.147 47.9826 82.147 52.4463Z" fill="#69BE5D"/>
<path d="M76.0195 30.5752C75.5493 30.5752 75.0248 31.2654 74.4861 32.3951C76.4228 35.1793 78.9284 48.935 78.9284 52.7559C78.9284 56.4887 77.1796 58.5902 74.8577 59.052C75.2412 59.1164 75.6298 59.1495 76.0192 59.1508C79.4035 59.1508 82.147 56.9102 82.147 52.4465C82.1472 47.9826 78.3934 30.5752 76.0195 30.5752Z" fill="#9DC85C"/>
<path d="M85.0256 64.3846C84.9121 64.3846 84.7998 64.3635 84.695 64.3223C84.5901 64.2811 84.4949 64.2207 84.4146 64.1446C84.3343 64.0685 84.2707 63.9781 84.2272 63.8786C84.1838 63.7792 84.1614 63.6725 84.1614 63.5648V54.7357C84.1614 54.283 84.548 53.916 85.0256 53.916C85.5032 53.916 85.8898 54.283 85.8898 54.7357V63.5648C85.8898 63.6725 85.8674 63.7792 85.824 63.8786C85.7805 63.9781 85.7168 64.0685 85.6366 64.1446C85.5563 64.2207 85.4611 64.2811 85.3562 64.3223C85.2514 64.3635 85.139 64.3846 85.0256 64.3846Z" fill="#828240"/>
<path d="M90.0508 53.652C90.0508 57.3129 87.8007 59.1506 85.0252 59.1506C82.2496 59.1506 79.9995 57.3129 79.9995 53.652C79.9995 49.991 83.0782 35.7139 85.0252 35.7139C86.9721 35.7139 90.0508 49.991 90.0508 53.652Z" fill="#69BE5D"/>
<path d="M85.0255 35.7139C84.6399 35.7139 84.2096 36.2799 83.7678 37.2064C85.3563 39.4898 87.4113 50.7719 87.4113 53.9057C87.4113 56.9672 85.9771 58.6908 84.0728 59.0695C84.3873 59.1224 84.706 59.1495 85.0255 59.1506C87.801 59.1506 90.0513 57.3129 90.0513 53.652C90.0511 49.991 86.9724 35.7139 85.0255 35.7139Z" fill="#9DC85C"/>
<path d="M100.903 55.4377C100.903 53.6602 99.408 46.7285 98.4627 46.7285C98.409 46.7285 98.3532 46.7568 98.2962 46.7996C98.2765 46.8143 98.2563 46.8373 98.2361 46.8568C98.1944 46.8975 98.1564 46.9415 98.1226 46.9883C98.0964 47.0237 98.0716 47.06 98.0481 47.0971C98.0102 47.1582 97.9746 47.2205 97.9413 47.284C97.9151 47.3326 97.8896 47.3773 97.8635 47.4313C97.8598 47.4393 97.8561 47.4449 97.852 47.4531L97.853 47.4549C96.9845 49.2748 96.0225 54.0115 96.0225 55.4375C96.0225 57.0061 96.874 57.8828 98.0001 58.0678H97.9999C98.0141 58.0701 98.0289 58.0693 98.0431 58.0715V60.2504C98.0431 60.356 98.0873 60.4573 98.166 60.532C98.2447 60.6067 98.3514 60.6486 98.4627 60.6486C98.574 60.6486 98.6807 60.6067 98.7594 60.532C98.838 60.4573 98.8823 60.356 98.8823 60.2504V58.0713C100.029 57.9014 100.903 57.0254 100.903 55.4377ZM15.8378 55.9799C15.8378 54.3873 14.4987 48.1772 13.6518 48.1772C13.6036 48.1772 13.5536 48.2025 13.5026 48.2408C13.4849 48.2541 13.4668 48.2744 13.4487 48.292C13.4113 48.3285 13.3773 48.3679 13.3468 48.4098C13.3233 48.4415 13.3011 48.474 13.2802 48.5072C13.2485 48.5574 13.2166 48.6145 13.1845 48.6748C13.1612 48.7184 13.1382 48.7584 13.1147 48.8068C13.1114 48.8139 13.1081 48.8191 13.1044 48.8264L13.1055 48.8279C12.3273 50.4584 11.4655 54.7022 11.4655 55.9799C11.4655 57.3854 12.2283 58.1707 13.2374 58.3363H13.2372C13.2499 58.3385 13.2631 58.3377 13.2758 58.3397V60.2918C13.2758 60.3864 13.3154 60.4772 13.3859 60.5441C13.4564 60.611 13.5521 60.6486 13.6518 60.6486C13.7515 60.6486 13.8471 60.611 13.9176 60.5441C13.9881 60.4772 14.0277 60.3864 14.0277 60.2918V58.3395C15.0553 58.1873 15.8378 57.4023 15.8378 55.9799ZM8.64795 57.0039C8.64795 55.7607 7.60266 50.9127 6.94153 50.9127C6.90387 50.9127 6.86498 50.9324 6.82506 50.9625C6.81128 50.9729 6.79708 50.9889 6.78309 51.0025C6.75395 51.031 6.72738 51.0618 6.70366 51.0945C6.68617 51.118 6.66909 51.143 6.6516 51.1707C6.62691 51.21 6.60201 51.2545 6.57691 51.3014C6.5586 51.3354 6.54069 51.3666 6.52259 51.4045L6.51456 51.4197C6.51475 51.4201 6.51496 51.4204 6.51518 51.4207C5.90796 52.6939 5.23511 56.0066 5.23511 57.0041C5.23511 58.1012 5.8306 58.7145 6.61827 58.8438H6.61806C6.62794 58.8453 6.63843 58.8447 6.64831 58.8463V60.3703C6.64831 60.4442 6.67922 60.515 6.73425 60.5673C6.78928 60.6195 6.86391 60.6488 6.94173 60.6488C7.01955 60.6488 7.09419 60.6195 7.14921 60.5673C7.20424 60.515 7.23516 60.4442 7.23516 60.3703V58.8463C8.03723 58.7272 8.64795 58.1145 8.64795 57.0039Z" fill="#D6EB76"/>
<path d="M97.0472 54.6293C97.0472 52.5764 95.3211 44.5703 94.2291 44.5703C94.1669 44.5703 94.1025 44.6029 94.0369 44.6525C94.014 44.6695 93.9908 44.6959 93.9675 44.7186C93.9194 44.7656 93.8755 44.8164 93.8363 44.8703C93.8074 44.909 93.7791 44.9504 93.7502 44.9961C93.7095 45.0607 93.6681 45.1344 93.627 45.2121C93.5969 45.2682 93.5673 45.3199 93.5373 45.3822C93.533 45.3914 93.5286 45.398 93.5239 45.4074C93.5242 45.4079 93.5245 45.4084 93.5247 45.409C92.522 47.5115 91.4109 52.9822 91.4109 54.6295C91.4109 56.4412 92.3942 57.4539 93.6951 57.6674L93.6949 57.6676C93.7112 57.6703 93.7284 57.6693 93.7447 57.6717V60.1883C93.7447 60.3103 93.7957 60.4273 93.8866 60.5135C93.9775 60.5998 94.1007 60.6482 94.2293 60.6482C94.3578 60.6482 94.481 60.5998 94.5719 60.5135C94.6628 60.4273 94.7139 60.3103 94.7139 60.1883V57.6715C96.0386 57.475 97.0472 56.4633 97.0472 54.6293Z" fill="#D6EB76"/>
<path d="M5.23462 71.6855C13.7406 88.4347 31.7746 99.9993 52.6759 99.9993C74.2382 99.9993 92.7549 87.6939 100.902 70.0837C76.7983 68.2536 24.8551 69.0527 5.23462 71.6855Z" fill="#D0D75B"/>
<path d="M87.8204 87.2236C70.6519 82.9736 35.4109 77.0384 10.1035 79.3589C19.671 91.8552 35.1539 100.001 52.6762 100.001C66.1884 100.001 78.5025 95.1658 87.8204 87.2236Z" fill="#D8C34A"/>
<path d="M22.7573 91.106C31.2481 96.7056 41.5473 100.001 52.6764 100.001C64.1544 100.001 74.76 96.5023 83.4072 90.5839C66.7207 89.5457 39.5036 88.8949 22.7573 91.106Z" fill="#D0B459"/>
<path d="M16.7153 62.8252H65.5912V64.0621H16.7153V62.8252Z" fill="#AB8240"/>
<path d="M36.3669 83.2445C36.3669 83.5899 36.5115 83.9211 36.7687 84.1653C37.026 84.4095 37.375 84.5467 37.7388 84.5467C38.1026 84.5467 38.4516 84.4095 38.7088 84.1653C38.9661 83.9211 39.1106 83.5899 39.1106 83.2445C39.1106 82.8992 38.9661 82.568 38.7088 82.3238C38.4516 82.0796 38.1026 81.9424 37.7388 81.9424C37.375 81.9424 37.026 82.0796 36.7687 82.3238C36.5115 82.568 36.3669 82.8992 36.3669 83.2445Z" fill="#D0D75B"/>
<path d="M42.0481 94.3031C42.0481 94.6485 42.1926 94.9797 42.4499 95.2239C42.7072 95.4681 43.0561 95.6053 43.4199 95.6053C43.7838 95.6053 44.1327 95.4681 44.39 95.2239C44.6473 94.9797 44.7918 94.6485 44.7918 94.3031C44.7918 93.9578 44.6473 93.6266 44.39 93.3824C44.1327 93.1382 43.7838 93.001 43.4199 93.001C43.0561 93.001 42.7072 93.1382 42.4499 93.3824C42.1926 93.6266 42.0481 93.9578 42.0481 94.3031Z" fill="#D8C34A"/>
<path d="M60.208 95.6059C60.208 95.9512 60.3525 96.2824 60.6098 96.5266C60.8671 96.7708 61.216 96.908 61.5799 96.908C61.9437 96.908 62.2926 96.7708 62.5499 96.5266C62.8072 96.2824 62.9517 95.9512 62.9517 95.6059C62.9517 95.2605 62.8072 94.9293 62.5499 94.6851C62.2926 94.4409 61.9437 94.3037 61.5799 94.3037C61.216 94.3037 60.8671 94.4409 60.6098 94.6851C60.3525 94.9293 60.208 95.2605 60.208 95.6059Z" fill="#D8C34A"/>
<path d="M66.4302 87.1508C66.4302 87.4961 66.5747 87.8273 66.832 88.0715C67.0893 88.3157 67.4382 88.4529 67.802 88.4529C68.1659 88.4529 68.5148 88.3157 68.7721 88.0715C69.0293 87.8273 69.1739 87.4961 69.1739 87.1508C69.1739 86.8054 69.0293 86.4742 68.7721 86.23C68.5148 85.9858 68.1659 85.8486 67.802 85.8486C67.4382 85.8486 67.0893 85.9858 66.832 86.23C66.5747 86.4742 66.4302 86.8054 66.4302 87.1508Z" fill="#D0B459"/>
<path d="M52.9067 93.5111C52.9067 93.8565 53.0513 94.1877 53.3085 94.4319C53.5658 94.6761 53.9147 94.8133 54.2786 94.8133C54.6424 94.8133 54.9914 94.6761 55.2486 94.4319C55.5059 94.1877 55.6504 93.8565 55.6504 93.5111C55.6504 93.1658 55.5059 92.8346 55.2486 92.5904C54.9914 92.3462 54.6424 92.209 54.2786 92.209C53.9147 92.209 53.5658 92.3462 53.3085 92.5904C53.0513 92.8346 52.9067 93.1658 52.9067 93.5111Z" fill="#D0D75B"/>
<path d="M57.4646 85.4164C57.4646 85.7618 57.6091 86.093 57.8664 86.3372C58.1237 86.5814 58.4726 86.7186 58.8364 86.7186C59.2003 86.7186 59.5492 86.5814 59.8065 86.3372C60.0638 86.093 60.2083 85.7618 60.2083 85.4164C60.2083 85.0711 60.0638 84.7399 59.8065 84.4957C59.5492 84.2514 59.2003 84.1143 58.8364 84.1143C58.4726 84.1143 58.1237 84.2514 57.8664 84.4957C57.6091 84.7399 57.4646 85.0711 57.4646 85.4164Z" fill="#D0D75B"/>
<path d="M47.5901 85.849C47.5901 86.1944 47.7346 86.5256 47.9919 86.7698C48.2492 87.014 48.5981 87.1512 48.9619 87.1512C49.3258 87.1512 49.6747 87.014 49.932 86.7698C50.1892 86.5256 50.3338 86.1944 50.3338 85.849C50.3338 85.5037 50.1892 85.1725 49.932 84.9283C49.6747 84.6841 49.3258 84.5469 48.9619 84.5469C48.5981 84.5469 48.2492 84.6841 47.9919 84.9283C47.7346 85.1725 47.5901 85.5037 47.5901 85.849Z" fill="#D0B459"/>
<path d="M34.4326 75.5205C34.4326 75.7277 34.5193 75.9264 34.6737 76.0729C34.828 76.2194 35.0374 76.3018 35.2557 76.3018C35.474 76.3018 35.6833 76.2194 35.8377 76.0729C35.992 75.9264 36.0787 75.7277 36.0787 75.5205C36.0787 75.3133 35.992 75.1146 35.8377 74.9681C35.6833 74.8216 35.474 74.7393 35.2557 74.7393C35.0374 74.7393 34.828 74.8216 34.6737 74.9681C34.5193 75.1146 34.4326 75.3133 34.4326 75.5205Z" fill="#CCE16B"/>
<path d="M60.2085 78.125C60.2085 78.3322 60.2952 78.5309 60.4496 78.6774C60.6039 78.8239 60.8133 78.9062 61.0316 78.9062C61.2499 78.9062 61.4592 78.8239 61.6136 78.6774C61.7679 78.5309 61.8546 78.3322 61.8546 78.125C61.8546 77.9178 61.7679 77.7191 61.6136 77.5726C61.4592 77.4261 61.2499 77.3438 61.0316 77.3438C60.8133 77.3438 60.6039 77.4261 60.4496 77.5726C60.2952 77.7191 60.2085 77.9178 60.2085 78.125Z" fill="#CCE16B"/>
<path d="M78.3167 81.5107C78.3167 81.7179 78.4034 81.9167 78.5577 82.0632C78.7121 82.2097 78.9214 82.292 79.1397 82.292C79.358 82.292 79.5674 82.2097 79.7217 82.0632C79.8761 81.9167 79.9628 81.7179 79.9628 81.5107C79.9628 81.3035 79.8761 81.1048 79.7217 80.9583C79.5674 80.8118 79.358 80.7295 79.1397 80.7295C78.9214 80.7295 78.7121 80.8118 78.5577 80.9583C78.4034 81.1048 78.3167 81.3035 78.3167 81.5107Z" fill="#CCE16B"/>
<path d="M72.8398 73.958C72.8398 74.1652 72.9266 74.3639 73.0809 74.5104C73.2353 74.6569 73.4446 74.7393 73.6629 74.7393C73.8812 74.7393 74.0906 74.6569 74.2449 74.5104C74.3993 74.3639 74.486 74.1652 74.486 73.958C74.486 73.7508 74.3993 73.5521 74.2449 73.4056C74.0906 73.2591 73.8812 73.1768 73.6629 73.1768C73.4446 73.1768 73.2353 73.2591 73.0809 73.4056C72.9266 73.5521 72.8398 73.7508 72.8398 73.958Z" fill="#D8C34A"/>
<path d="M50.6221 72.3955C50.6221 72.6027 50.7088 72.8014 50.8631 72.9479C51.0175 73.0944 51.2268 73.1768 51.4451 73.1768C51.6634 73.1768 51.8728 73.0944 52.0271 72.9479C52.1815 72.8014 52.2682 72.6027 52.2682 72.3955C52.2682 72.1883 52.1815 71.9896 52.0271 71.8431C51.8728 71.6966 51.6634 71.6143 51.4451 71.6143C51.2268 71.6143 51.0175 71.6966 50.8631 71.8431C50.7088 71.9896 50.6221 72.1883 50.6221 72.3955Z" fill="#D8C34A"/>
<path d="M25.7893 85.849C25.7893 86.1944 25.9338 86.5256 26.1911 86.7698C26.4484 87.014 26.7973 87.1512 27.1612 87.1512C27.525 87.1512 27.8739 87.014 28.1312 86.7698C28.3885 86.5256 28.533 86.1944 28.533 85.849C28.533 85.5037 28.3885 85.1725 28.1312 84.9283C27.8739 84.6841 27.525 84.5469 27.1612 84.5469C26.7973 84.5469 26.4484 84.6841 26.1911 84.9283C25.9338 85.1725 25.7893 85.5037 25.7893 85.849Z" fill="#D0B459"/>
<path d="M21.4545 62.0305C21.129 62.0305 20.8214 62.0912 20.5267 62.1795C19.5929 60.9053 18.0437 60.0674 16.2844 60.0674C14.5251 60.0674 12.9761 60.9051 12.0421 62.1795C11.7473 62.0912 11.4397 62.0305 11.1143 62.0305C9.40113 62.0305 8.01221 63.3488 8.01221 64.975H24.5564C24.5566 63.3488 23.1677 62.0305 21.4545 62.0305Z" fill="#9DC85C"/>
<path d="M27.2275 64.9596C27.2275 63.499 28.4749 62.315 30.0136 62.315C30.2459 62.315 30.4679 62.3498 30.6836 62.4008C31.4106 61.6557 32.4415 61.1816 33.5958 61.1816C35.794 61.1816 37.5759 62.873 37.5759 64.9596H27.2275Z" fill="#9DC85C"/>
<path d="M19.4654 62.0297C19.1399 62.0297 18.8323 62.0906 18.5376 62.1787C17.7861 61.1533 16.6273 60.4354 15.29 60.1846C13.9525 60.4355 12.7938 61.1533 12.0424 62.1787C11.7475 62.0904 11.4399 62.0297 11.1146 62.0297C9.40137 62.0297 8.01245 63.348 8.01245 64.9742H22.5675C22.5673 63.3478 21.1786 62.0297 19.4654 62.0297Z" fill="#69BE5D"/>
<path d="M32.8995 61.2529C32.049 61.3969 31.2712 61.7999 30.6836 62.401C30.4679 62.3502 30.2459 62.3154 30.0136 62.3154C28.4749 62.3154 27.2275 63.4994 27.2275 64.96H36.1378C36.1378 63.1146 34.7421 61.5836 32.8995 61.2529Z" fill="#69BE5D"/>
<path d="M80.2595 64.9602C80.2595 63.266 81.7063 61.8928 83.4911 61.8928C83.7604 61.8928 84.0181 61.9332 84.2681 61.9922C85.1113 61.1277 86.307 60.5781 87.6459 60.5781C90.1956 60.5781 92.2625 62.54 92.2625 64.9602H80.2595Z" fill="#9DC85C"/>
<path d="M66.4304 63.3996C66.4304 62.3406 67.335 61.482 68.4506 61.482C68.6189 61.482 68.7801 61.5072 68.9365 61.5441C69.4636 61.0037 70.211 60.6602 71.048 60.6602C72.6419 60.6602 73.9339 61.8865 73.9339 63.3994H66.4304V63.3996Z" fill="#CCE16B"/>
<path d="M86.8383 60.6602C85.8518 60.8271 84.9496 61.2946 84.2681 61.9918C84.0178 61.933 83.7602 61.8924 83.4911 61.8924C81.7063 61.8924 80.2595 63.2656 80.2595 64.9598H90.5946C90.5946 62.8195 88.9758 61.0436 86.8383 60.6602Z" fill="#69BE5D"/>
</svg>
