<svg width="22" height="21" viewBox="0 0 22 21" fill="none" xmlns="http://www.w3.org/2000/svg">
<path d="M6.7894 16.7891C7.66143 16.7891 8.36835 17.496 8.36835 18.368C8.36835 19.24 7.66143 19.947 6.7894 19.947C5.91737 19.947 5.21045 19.24 5.21045 18.368C5.21045 17.496 5.91737 16.7891 6.7894 16.7891Z" stroke="white" stroke-width="2"/>
<path d="M16.2633 16.7891C17.1353 16.7891 17.8422 17.4959 17.8422 18.368C17.8422 19.24 17.1353 19.947 16.2633 19.947C15.3913 19.947 14.6843 19.24 14.6843 18.368C14.6843 17.4959 15.3913 16.7891 16.2633 16.7891Z" stroke="white" stroke-width="2"/>
<path d="M12.5789 11.526V9.42069M12.5789 9.42069V7.31543M12.5789 9.42069H14.6842M12.5789 9.42069H10.4736" stroke="white" stroke-width="2" stroke-linecap="round"/>
<path d="M1 1L1.27496 1.09667C2.64505 1.57837 3.33011 1.81922 3.72194 2.39261C4.11377 2.96601 4.11377 3.72764 4.11377 5.25091V8.11579C4.11377 11.2122 4.18034 12.234 5.09234 13.196C6.00434 14.1579 7.47218 14.1579 10.4079 14.1579H11.5263M15.9899 14.1579C17.6331 14.1579 18.4546 14.1579 19.0354 13.6846C19.6161 13.2114 19.782 12.4067 20.1137 10.7974L20.6398 8.245C21.0052 6.41441 21.1878 5.49913 20.7205 4.89167C20.2533 4.28421 18.6566 4.28421 16.883 4.28421H10.4984M4.11377 4.28421H6.26316" stroke="white" stroke-width="2" stroke-linecap="round"/>
</svg>
