<svg width="36" height="34" viewBox="0 0 36 34" fill="none" xmlns="http://www.w3.org/2000/svg">
<path d="M11.2631 27.2627C12.6584 27.2627 13.7895 28.3938 13.7895 29.789C13.7895 31.1842 12.6584 32.3153 11.2631 32.3153C9.86788 32.3153 8.73682 31.1842 8.73682 29.789C8.73682 28.3938 9.86788 27.2627 11.2631 27.2627Z" stroke="white" stroke-width="2.5"/>
<path d="M26.4208 27.2627C27.816 27.2627 28.9472 28.3936 28.9472 29.789C28.9472 31.1842 27.816 32.3153 26.4208 32.3153C25.0256 32.3153 23.8945 31.1842 23.8945 29.789C23.8945 28.3936 25.0256 27.2627 26.4208 27.2627Z" stroke="white" stroke-width="2.5"/>
<path d="M20.5261 18.8413V15.4729M20.5261 15.4729V12.1045M20.5261 15.4729H23.8946M20.5261 15.4729H17.1577" stroke="white" stroke-width="2.5" stroke-linecap="round"/>
<path d="M2 2L2.43993 2.15468C4.63209 2.92539 5.72817 3.31075 6.3551 4.22818C6.98203 5.14562 6.98203 6.36423 6.98203 8.80145V13.3853C6.98203 18.3395 7.08854 19.9744 8.54774 21.5136C10.0069 23.0526 12.3555 23.0526 17.0526 23.0526H18.8421M25.9838 23.0526C28.6129 23.0526 29.9274 23.0526 30.8566 22.2954C31.7858 21.5382 32.0512 20.2508 32.5819 17.6758L33.4237 13.592C34.0083 10.6631 34.3005 9.19861 33.5529 8.22667C32.8052 7.25474 30.2506 7.25474 27.4127 7.25474H17.1975M6.98203 7.25474H10.4211" stroke="white" stroke-width="2.5" stroke-linecap="round"/>
</svg>
