<svg width="44" height="44" viewBox="0 0 44 44" fill="none" xmlns="http://www.w3.org/2000/svg">
<path d="M40.3249 10.9191L21.3604 29.8835C19.4719 31.772 13.866 32.6467 12.6136 31.3943C11.3613 30.1419 12.2161 24.5361 14.1046 22.6476L33.089 3.66325C33.5571 3.15248 34.1239 2.7419 34.7552 2.45624C35.3864 2.17058 36.069 2.01573 36.7618 2.00113C37.4544 1.98656 38.143 2.11248 38.7857 2.37132C39.4284 2.63016 40.012 3.01661 40.5012 3.50722C40.9905 3.99783 41.3753 4.58247 41.6323 5.22587C41.8894 5.86929 42.0136 6.55809 41.9971 7.25078C41.9806 7.94346 41.8238 8.62568 41.5365 9.25614C41.2491 9.8866 40.837 10.4523 40.3249 10.9191Z" stroke="white" stroke-width="3.75" stroke-linecap="round" stroke-linejoin="round"/>
<path d="M19.891 6.14844H9.95156C7.84267 6.14844 5.82029 6.98617 4.32907 8.47739C2.83788 9.96861 2 11.9911 2 14.1V33.9789C2 36.0879 2.83788 38.1103 4.32907 39.6015C5.82029 41.0928 7.84267 41.9305 9.95156 41.9305H31.8184C36.2116 41.9305 37.782 38.3523 37.782 33.9789V24.0395" stroke="white" stroke-width="3.75" stroke-linecap="round" stroke-linejoin="round"/>
</svg>
