<svg width="36" height="36" viewBox="0 0 36 36" fill="none" xmlns="http://www.w3.org/2000/svg">
<path d="M32.6607 9.13529L17.4891 24.3068C15.9783 25.8176 11.4936 26.5173 10.4917 25.5154C9.4898 24.5135 10.1736 20.0288 11.6844 18.5181L26.872 3.3306C27.2465 2.92198 27.6999 2.59352 28.205 2.36499C28.7099 2.13647 29.256 2.01258 29.8102 2.00091C30.3643 1.98925 30.9152 2.08998 31.4293 2.29706C31.9435 2.50413 32.4104 2.81329 32.8018 3.20578C33.1931 3.59827 33.501 4.06598 33.7067 4.5807C33.9123 5.09543 34.0117 5.64648 33.9985 6.20062C33.9853 6.75476 33.8598 7.30054 33.63 7.80491C33.4 8.30928 33.0704 8.76187 32.6607 9.13529Z" stroke="#021016" stroke-width="3.75" stroke-linecap="round" stroke-linejoin="round"/>
<path d="M16.3128 5.31836H8.36125C6.67414 5.31836 5.05623 5.98855 3.86326 7.18152C2.6703 8.37449 2 9.99249 2 11.6796V27.5827C2 29.2699 2.6703 30.8879 3.86326 32.0808C5.05623 33.2738 6.67414 33.944 8.36125 33.944H25.8547C29.3693 33.944 30.6256 31.0814 30.6256 27.5827V19.6312" stroke="#021016" stroke-width="3.75" stroke-linecap="round" stroke-linejoin="round"/>
</svg>
