<svg width="92" height="85" viewBox="0 0 92 85" fill="none" xmlns="http://www.w3.org/2000/svg">
<path d="M46.8313 37.4707C46.8313 46.1827 39.7688 53.2452 31.0568 53.2452C22.3447 53.2452 15.2822 46.1827 15.2822 37.4707" stroke="#021016" stroke-width="2"/>
<path d="M77.5918 37.4707C77.5918 46.1827 70.5293 53.2452 61.8173 53.2452C53.1052 53.2452 46.0427 46.1827 46.0427 37.4707" stroke="#021016" stroke-width="2"/>
<path d="M54.719 51.668C54.719 56.2418 51.0112 59.9496 46.4374 59.9496C41.8636 59.9496 38.1558 56.2418 38.1558 51.668" stroke="#021016" stroke-width="2"/>
<path d="M91 0.402344C91 13.4704 87.4687 24.0641 83.1127 24.0641C78.7567 24.0641 75.2255 13.4704 75.2255 0.402344" stroke="#021016" stroke-width="2"/>
<path d="M16.86 0.402344C16.86 13.4704 13.3287 24.0641 8.97271 24.0641C4.6167 24.0641 1.08545 13.4704 1.08545 0.402344" stroke="#021016" stroke-width="2"/>
<path d="M45.177 31.084C45.5619 30.4173 46.5242 30.4173 46.9091 31.084L52.0076 39.9149C52.3925 40.5815 51.9113 41.4149 51.1415 41.4149H40.9445C40.1747 41.4149 39.6936 40.5815 40.0785 39.9149L45.177 31.084Z" fill="#021016"/>
<ellipse cx="29.4795" cy="16.1754" rx="7.88726" ry="7.88726" fill="#021016"/>
<ellipse cx="30.2684" cy="20.9069" rx="3.15491" ry="3.15491" fill="#F9D923"/>
<ellipse cx="62.6063" cy="16.1754" rx="7.88726" ry="7.88726" fill="#021016"/>
<ellipse cx="61.0288" cy="20.9069" rx="3.15491" ry="3.15491" fill="#F9D923"/>
<path d="M87.4504 4.73906C87.4504 6.48146 84.8548 8.28833 83.1124 8.28833C81.37 8.28833 79.9575 6.87583 79.9575 5.13342C79.9575 3.39102 81.37 1.97852 83.1124 1.97852C84.8548 1.97852 87.4504 2.99665 87.4504 4.73906Z" fill="#021016"/>
<path d="M89.423 13.8112C89.423 15.5536 89.1936 15.7831 87.4512 15.7831C85.7088 15.7831 84.6908 15.948 84.6908 14.2056C84.6908 12.4632 85.3146 10.6563 87.057 10.6563C91.395 8.68428 89.423 12.0688 89.423 13.8112Z" fill="#021016"/>
<path d="M16.8594 7.49977C16.8594 9.24218 15.4469 10.6547 13.7045 10.6547C11.9621 10.6547 13.3101 7.27036 13.3101 5.52795C13.3101 3.78555 13.1452 2.37305 14.8876 2.37305C16.63 2.37305 16.8594 5.75736 16.8594 7.49977Z" fill="#021016"/>
<path d="M10.5498 15.3872C10.5498 17.1296 11.1091 19.3308 9.3667 19.3308C7.62429 19.3308 6.21179 17.9183 6.21179 16.1759C6.21179 14.4335 8.01865 11.8379 9.76105 11.8379C11.5035 11.8379 10.5498 13.6448 10.5498 15.3872Z" fill="#021016"/>
<path d="M4.63477 5.133C4.63477 6.87541 4.79972 8.68236 3.05731 8.68236C1.31491 8.68236 1.0855 6.87541 1.0855 5.133C1.0855 3.3906 0.526185 1.18945 2.26859 1.18945C4.011 1.18945 4.63477 3.3906 4.63477 5.133Z" fill="#021016"/>
<path d="M46.8313 37.0703C46.8313 45.7823 39.7688 52.8448 31.0568 52.8448C22.3447 52.8448 15.2822 45.7823 15.2822 37.0703" stroke="#2D3335" stroke-width="2"/>
<path d="M77.5924 37.0703C77.5924 45.7823 70.5299 52.8448 61.8179 52.8448C53.1058 52.8448 46.0433 45.7823 46.0433 37.0703" stroke="#2D3335" stroke-width="2"/>
<path d="M54.719 51.2676C54.719 55.8414 51.0112 59.5492 46.4374 59.5492C41.8636 59.5492 38.1558 55.8414 38.1558 51.2676" stroke="#2D3335" stroke-width="2"/>
<path d="M91 0C91 13.068 87.4687 23.6618 83.1127 23.6618C78.7567 23.6618 75.2255 13.068 75.2255 0" stroke="#2D3335" stroke-width="2"/>
<path d="M16.8588 0C16.8588 13.068 13.3275 23.6618 8.97149 23.6618C4.61548 23.6618 1.08423 13.068 1.08423 0" stroke="#2D3335" stroke-width="2"/>
<path d="M45.177 30.6816C45.5619 30.015 46.5242 30.015 46.9091 30.6816L52.0076 39.5125C52.3925 40.1792 51.9113 41.0125 51.1415 41.0125H40.9445C40.1747 41.0125 39.6936 40.1792 40.0785 39.5125L45.177 30.6816Z" fill="#2D3335"/>
<ellipse cx="29.4788" cy="15.775" rx="7.88726" ry="7.88726" fill="#2D3335"/>
<ellipse cx="30.2677" cy="20.5084" rx="3.15491" ry="3.15491" fill="#F9D923"/>
<ellipse cx="62.6055" cy="15.775" rx="7.88726" ry="7.88726" fill="#2D3335"/>
<ellipse cx="61.0275" cy="20.5084" rx="3.15491" ry="3.15491" fill="#F9D923"/>
<path d="M87.451 4.33769C87.451 6.0801 84.8554 7.88696 83.113 7.88696C81.3706 7.88696 79.9581 6.47446 79.9581 4.73205C79.9581 2.98965 81.3706 1.57715 83.113 1.57715C84.8554 1.57715 87.451 2.59528 87.451 4.33769Z" fill="#2D3335"/>
<path d="M89.4236 13.4099C89.4236 15.1523 89.1942 15.3817 87.4518 15.3817C85.7094 15.3817 84.6914 15.5466 84.6914 13.8042C84.6914 12.0618 85.3152 10.255 87.0576 10.255C91.3956 8.28291 89.4236 11.6675 89.4236 13.4099Z" fill="#2D3335"/>
<path d="M16.86 7.09938C16.86 8.84178 15.4475 10.2543 13.7051 10.2543C11.9627 10.2543 13.3107 6.86997 13.3107 5.12756C13.3107 3.38516 13.1458 1.97266 14.8882 1.97266C16.6306 1.97266 16.86 5.35697 16.86 7.09938Z" fill="#2D3335"/>
<path d="M10.5498 14.9858C10.5498 16.7282 11.1091 18.9294 9.3667 18.9294C7.62429 18.9294 6.21179 17.5169 6.21179 15.7745C6.21179 14.0321 8.01865 11.4365 9.76105 11.4365C11.5035 11.4365 10.5498 13.2434 10.5498 14.9858Z" fill="#2D3335"/>
<path d="M4.63477 4.73261C4.63477 6.47502 4.79972 8.28196 3.05731 8.28196C1.31491 8.28196 1.0855 6.47502 1.0855 4.73261C1.0855 2.99021 0.526185 0.789062 2.26859 0.789062C4.011 0.789062 4.63477 2.99021 4.63477 4.73261Z" fill="#2D3335"/>
<path d="M44.6086 75.1343C45.2272 74.0629 46.7736 74.0629 47.3922 75.1343L48.7841 77.5451C49.4027 78.6165 48.6294 79.9558 47.3922 79.9558H44.6086C43.3714 79.9558 42.5981 78.6165 43.2167 77.5451L44.6086 75.1343Z" fill="#021016"/>
<path d="M5.43359 83.9736V69.9476H10.9673C12.0311 69.9476 12.9374 70.1508 13.6862 70.5572C14.435 70.9589 15.0057 71.5182 15.3984 72.2351C15.7956 72.9473 15.9942 73.7692 15.9942 74.7006C15.9942 75.632 15.7933 76.4538 15.3915 77.1661C14.9897 77.8784 14.4076 78.4331 13.6451 78.8303C12.8872 79.2275 11.9695 79.4261 10.892 79.4261H7.36491V77.0497H10.4126C10.9833 77.0497 11.4536 76.9515 11.8234 76.7552C12.1978 76.5543 12.4763 76.2781 12.6589 75.9265C12.8461 75.5704 12.9397 75.1617 12.9397 74.7006C12.9397 74.2349 12.8461 73.8285 12.6589 73.4815C12.4763 73.13 12.1978 72.8583 11.8234 72.6665C11.449 72.4702 10.9741 72.372 10.3989 72.372H8.39906V83.9736H5.43359Z" fill="#021016"/>
<path d="M17.9204 83.9736V69.9476H27.3715V72.3926H20.8858V75.7347H26.8853V78.1797H20.8858V81.5287H27.3989V83.9736H17.9204Z" fill="#021016"/>
<path d="M29.195 72.3926V69.9476H40.7144V72.3926H36.4203V83.9736H33.4891V72.3926H29.195Z" fill="#021016"/>
<path d="M51.0045 72.3926V69.9476H62.5239V72.3926H58.2298V83.9736H55.2986V72.3926H51.0045Z" fill="#021016"/>
<path d="M76.6698 76.9606C76.6698 78.4902 76.3798 79.7914 75.8 80.8644C75.2247 81.9373 74.4394 82.7569 73.4441 83.323C72.4533 83.8846 71.3392 84.1654 70.1019 84.1654C68.8555 84.1654 67.7369 83.8823 66.7461 83.3162C65.7553 82.75 64.9723 81.9305 64.397 80.8575C63.8217 79.7846 63.5341 78.4856 63.5341 76.9606C63.5341 75.4311 63.8217 74.1299 64.397 73.0569C64.9723 71.984 65.7553 71.1667 66.7461 70.6051C67.7369 70.0389 68.8555 69.7559 70.1019 69.7559C71.3392 69.7559 72.4533 70.0389 73.4441 70.6051C74.4394 71.1667 75.2247 71.984 75.8 73.0569C76.3798 74.1299 76.6698 75.4311 76.6698 76.9606ZM73.6632 76.9606C73.6632 75.9699 73.5148 75.1343 73.2181 74.454C72.9258 73.7737 72.5126 73.2578 71.9785 72.9062C71.4443 72.5547 70.8187 72.3789 70.1019 72.3789C69.3851 72.3789 68.7596 72.5547 68.2254 72.9062C67.6912 73.2578 67.2757 73.7737 66.9789 74.454C66.6867 75.1343 66.5406 75.9699 66.5406 76.9606C66.5406 77.9514 66.6867 78.7869 66.9789 79.4672C67.2757 80.1475 67.6912 80.6635 68.2254 81.015C68.7596 81.3666 69.3851 81.5424 70.1019 81.5424C70.8187 81.5424 71.4443 81.3666 71.9785 81.015C72.5126 80.6635 72.9258 80.1475 73.2181 79.4672C73.5148 78.7869 73.6632 77.9514 73.6632 76.9606Z" fill="#021016"/>
<path d="M78.8665 83.9736V69.9476H84.4002C85.464 69.9476 86.3703 70.1508 87.1191 70.5572C87.8679 70.9589 88.4386 71.5182 88.8313 72.2351C89.2285 72.9473 89.4271 73.7692 89.4271 74.7006C89.4271 75.632 89.2262 76.4538 88.8244 77.1661C88.4226 77.8784 87.8405 78.4331 87.078 78.8303C86.3201 79.2275 85.4024 79.4261 84.3248 79.4261H80.7978V77.0497H83.8454C84.4162 77.0497 84.8864 76.9515 85.2563 76.7552C85.6307 76.5543 85.9092 76.2781 86.0918 75.9265C86.279 75.5704 86.3726 75.1617 86.3726 74.7006C86.3726 74.2349 86.279 73.8285 86.0918 73.4815C85.9092 73.13 85.6307 72.8583 85.2563 72.6665C84.8819 72.4702 84.407 72.372 83.8317 72.372H81.8319V83.9736H78.8665Z" fill="#021016"/>
<path d="M44.6086 73.5269C45.2272 72.4555 46.7736 72.4555 47.3922 73.5269L48.7841 75.9376C49.4027 77.0091 48.6294 78.3484 47.3922 78.3484H44.6086C43.3714 78.3484 42.5981 77.0091 43.2167 75.9376L44.6086 73.5269Z" fill="#2D3335"/>
<path d="M5.43359 82.3662V68.3402H10.9673C12.0311 68.3402 12.9374 68.5434 13.6862 68.9497C14.435 69.3515 15.0057 69.9108 15.3984 70.6276C15.7956 71.3399 15.9942 72.1617 15.9942 73.0932C15.9942 74.0246 15.7933 74.8464 15.3915 75.5587C14.9897 76.2709 14.4076 76.8257 13.6451 77.2229C12.8872 77.6201 11.9695 77.8187 10.892 77.8187H7.36491V75.4422H10.4126C10.9833 75.4422 11.4536 75.3441 11.8234 75.1478C12.1978 74.9469 12.4763 74.6706 12.6589 74.3191C12.8461 73.9629 12.9397 73.5543 12.9397 73.0932C12.9397 72.6275 12.8461 72.2211 12.6589 71.8741C12.4763 71.5225 12.1978 71.2509 11.8234 71.0591C11.449 70.8628 10.9741 70.7646 10.3989 70.7646H8.39906V82.3662H5.43359Z" fill="#2D3335"/>
<path d="M17.9204 82.3662V68.3402H27.3715V70.7852H20.8858V74.1273H26.8853V76.5723H20.8858V79.9213H27.3989V82.3662H17.9204Z" fill="#2D3335"/>
<path d="M29.195 70.7852V68.3402H40.7144V70.7852H36.4203V82.3662H33.4891V70.7852H29.195Z" fill="#2D3335"/>
<path d="M51.0045 70.7852V68.3402H62.5239V70.7852H58.2298V82.3662H55.2986V70.7852H51.0045Z" fill="#2D3335"/>
<path d="M76.6698 75.3532C76.6698 76.8827 76.3798 78.184 75.8 79.2569C75.2247 80.3299 74.4394 81.1494 73.4441 81.7156C72.4533 82.2772 71.3392 82.558 70.1019 82.558C68.8555 82.558 67.7369 82.2749 66.7461 81.7088C65.7553 81.1426 64.9723 80.323 64.397 79.2501C63.8217 78.1771 63.5341 76.8782 63.5341 75.3532C63.5341 73.8237 63.8217 72.5224 64.397 71.4495C64.9723 70.3765 65.7553 69.5593 66.7461 68.9977C67.7369 68.4315 68.8555 68.1484 70.1019 68.1484C71.3392 68.1484 72.4533 68.4315 73.4441 68.9977C74.4394 69.5593 75.2247 70.3765 75.8 71.4495C76.3798 72.5224 76.6698 73.8237 76.6698 75.3532ZM73.6632 75.3532C73.6632 74.3624 73.5148 73.5269 73.2181 72.8466C72.9258 72.1663 72.5126 71.6504 71.9785 71.2988C71.4443 70.9473 70.8187 70.7715 70.1019 70.7715C69.3851 70.7715 68.7596 70.9473 68.2254 71.2988C67.6912 71.6504 67.2757 72.1663 66.9789 72.8466C66.6867 73.5269 66.5406 74.3624 66.5406 75.3532C66.5406 76.344 66.6867 77.1795 66.9789 77.8598C67.2757 78.5401 67.6912 79.056 68.2254 79.4076C68.7596 79.7592 69.3851 79.935 70.1019 79.935C70.8187 79.935 71.4443 79.7592 71.9785 79.4076C72.5126 79.056 72.9258 78.5401 73.2181 77.8598C73.5148 77.1795 73.6632 76.344 73.6632 75.3532Z" fill="#2D3335"/>
<path d="M78.8665 82.3662V68.3402H84.4002C85.464 68.3402 86.3703 68.5434 87.1191 68.9497C87.8679 69.3515 88.4386 69.9108 88.8313 70.6276C89.2285 71.3399 89.4271 72.1617 89.4271 73.0932C89.4271 74.0246 89.2262 74.8464 88.8244 75.5587C88.4226 76.2709 87.8405 76.8257 87.078 77.2229C86.3201 77.6201 85.4024 77.8187 84.3248 77.8187H80.7978V75.4422H83.8454C84.4162 75.4422 84.8864 75.3441 85.2563 75.1478C85.6307 74.9469 85.9092 74.6706 86.0918 74.3191C86.279 73.9629 86.3726 73.5543 86.3726 73.0932C86.3726 72.6275 86.279 72.2211 86.0918 71.8741C85.9092 71.5225 85.6307 71.2509 85.2563 71.0591C84.8819 70.8628 84.407 70.7646 83.8317 70.7646H81.8319V82.3662H78.8665Z" fill="#2D3335"/>
</svg>
