<svg width="106" height="100" viewBox="0 0 106 100" fill="none" xmlns="http://www.w3.org/2000/svg">
<g clip-path="url(#clip0_121_10516)">
<path opacity="0.06" d="M53.0249 99.9529C66.597 99.9529 80.1694 95.0795 90.5017 85.332C111.166 65.8371 111.166 34.1162 90.5017 14.6215C80.1692 4.87363 66.597 0 53.0249 0V99.9529Z" fill="#040000"/>
<path d="M53 100C23.7757 100 0 77.5701 0 50C0 22.4299 23.7757 0 53 0C82.2243 0 106 22.4299 106 50C106 77.5701 82.2243 100 53 100Z" fill="#F8D176"/>
<g opacity="0.2">
<path d="M68.7049 54.3967C68.1586 52.8902 67.275 51.6217 66.0578 50.5906C65.0891 49.6768 63.9324 48.9639 62.5876 48.4482C61.2427 47.9328 59.5395 47.5344 57.478 47.2564L57.0805 47.1996L52.1163 46.4832C51.1512 46.366 50.3421 46.1652 49.6893 45.8873C49.416 45.7734 49.1606 45.6463 48.9194 45.5092C48.5858 45.3184 48.2877 45.1074 48.0182 44.8764C47.5534 44.4412 47.2304 43.9658 47.0389 43.4504C46.8509 42.935 46.7551 42.3992 46.7551 41.8436C46.7551 40.374 47.3122 39.1154 48.4264 38.0643C48.579 37.9203 48.7422 37.7863 48.9196 37.6658C50.0268 36.8791 51.5986 36.4875 53.6318 36.4875C54.7353 36.4875 55.8849 36.5812 57.0807 36.7721C57.4816 36.8357 57.8863 36.9094 58.2979 36.993C59.9372 37.3311 61.4524 38.1344 62.8397 39.4031L68.3894 34.2246C66.4555 32.4404 64.3337 31.1717 62.0201 30.4186C60.5369 29.9365 58.8871 29.6051 57.0772 29.4344C56.0661 29.334 55.0015 29.2871 53.8838 29.2871C52.0954 29.2871 50.4384 29.4578 48.9196 29.8025C48.3695 29.9264 47.8374 30.0703 47.3227 30.241C45.3889 30.8738 43.7496 31.7574 42.4047 32.8855C41.0598 34.017 40.0272 35.366 39.3142 36.9326C38.5974 38.4992 38.2426 40.2367 38.2426 42.1414C38.2426 45.75 39.3142 48.5285 41.4573 50.4699C42.4687 51.3838 43.6643 52.127 45.0518 52.7027C46.1483 53.1547 47.4327 53.5162 48.9194 53.7807C49.3204 53.8543 49.732 53.9213 50.1614 53.9814L55.5228 54.7547C56.1259 54.8383 56.6441 54.9287 57.0805 55.0225C57.4673 55.1096 57.7902 55.1965 58.0457 55.2902C58.5921 55.4877 59.096 55.7857 59.5608 56.1807C60.4833 57.0545 60.9481 58.226 60.9481 59.6922C60.9481 61.3994 60.274 62.7082 58.9291 63.6187C58.4111 63.9736 57.7938 64.2582 57.0805 64.4723C55.9452 64.817 54.5649 64.9877 52.9362 64.9877C51.5524 64.9877 50.211 64.8705 48.9194 64.6361C48.2912 64.5223 47.6774 64.3816 47.0708 64.2145C45.2222 63.699 43.5827 62.7684 42.1528 61.4193L36.4753 66.7719C38.6612 68.8773 41.0882 70.3336 43.7601 71.1471C45.3497 71.6324 47.0708 71.9705 48.9231 72.1646C50.1792 72.2986 51.4992 72.3656 52.8759 72.3656C54.3378 72.3656 55.7394 72.2551 57.0807 72.0309C57.8969 71.8969 58.6917 71.7195 59.4651 71.502C61.5054 70.9295 63.2689 70.0961 64.7628 69.0047C66.2568 67.9135 67.424 66.5744 68.2652 64.9877C69.1062 63.401 69.525 61.5766 69.525 59.5146C69.5246 57.6102 69.2513 55.9062 68.7049 54.3967Z" fill="white"/>
<path d="M57.0806 29.5713V36.7717C55.8848 36.5809 54.7351 36.4871 53.6317 36.4871C51.5984 36.4871 50.0266 36.8787 48.9194 37.6654V29.5713C48.9194 27.4523 50.7575 25.7217 53 25.7217C54.1213 25.7217 55.1432 26.1535 55.8813 26.8531C56.591 27.5193 57.0417 28.4299 57.0771 29.434C57.0806 29.4809 57.0806 29.5244 57.0806 29.5713Z" fill="white"/>
<path d="M57.0806 47.1992V55.0223C56.6442 54.9285 56.1262 54.8381 55.5229 54.7545L50.1614 53.9812C49.732 53.9209 49.3205 53.8541 48.9194 53.7805V45.5088C49.1606 45.6461 49.4161 45.7732 49.6894 45.8869C50.3424 46.1648 51.1512 46.3656 52.1164 46.4828L57.0806 47.1992Z" fill="white"/>
<path d="M52.9363 64.9881C54.565 64.9881 55.9452 64.8174 57.0806 64.4727V72.0848C57.0806 74.2004 55.2461 75.9344 53 75.9344C50.7858 75.9344 48.9656 74.2439 48.923 72.165C48.9194 72.1383 48.9194 72.1115 48.9194 72.0848V64.6365C50.2111 64.8709 51.5523 64.9881 52.9363 64.9881Z" fill="white"/>
</g>
<g opacity="0.5">
<path d="M53.0002 92.3107C28.2699 92.3107 8.15039 73.3301 8.15039 49.9996C8.15039 26.6691 28.2697 7.68848 53.0002 7.68848C77.7305 7.68848 97.85 26.6689 97.85 49.9996C97.85 73.3303 77.7305 92.3107 53.0002 92.3107ZM53.0002 18.477C34.5757 18.477 19.5862 32.618 19.5862 49.9996C19.5862 67.3812 34.5757 81.5223 53.0002 81.5223C71.4247 81.5223 86.4142 67.3812 86.4142 49.9996C86.4142 32.618 71.4245 18.477 53.0002 18.477Z" fill="#C69949"/>
</g>
<path d="M38.0939 16.0673C38.1887 16.2947 38.2711 16.5013 38.3396 16.6865C38.4087 16.8712 38.4589 17.047 38.4897 17.2132C38.5208 17.3787 38.529 17.5392 38.5139 17.6939C38.4996 17.848 38.4537 18.0097 38.3765 18.1771C38.2736 18.4005 38.1315 18.5959 37.9506 18.7634C37.7696 18.9302 37.5324 19.0687 37.2396 19.1771C36.9475 19.2855 36.6732 19.3371 36.4173 19.3316C36.1614 19.3261 35.9153 19.2755 35.6778 19.1781C35.5008 19.1046 35.3509 19.0166 35.2285 18.9127C35.1058 18.8093 34.9969 18.6859 34.9031 18.5435C34.8076 18.4011 34.7192 18.2402 34.636 18.0605C34.5522 17.88 34.4636 17.6767 34.3687 17.4494C34.2743 17.2224 34.1926 17.0164 34.1238 16.831C34.0543 16.6455 34.0033 16.4705 33.9696 16.3052C33.9365 16.141 33.9265 15.9808 33.9418 15.8261C33.9561 15.6716 34.0025 15.5103 34.0793 15.3429C34.1826 15.1195 34.3255 14.9238 34.5093 14.7552C34.6925 14.5871 34.9304 14.449 35.2236 14.3406C35.5163 14.2316 35.7894 14.1806 36.0428 14.1871C36.2956 14.1931 36.5413 14.2447 36.7782 14.3416C36.9556 14.4144 37.1055 14.5035 37.2278 14.607C37.3502 14.7109 37.4593 14.8337 37.557 14.975C37.6541 15.1164 37.7444 15.2773 37.8276 15.4566C37.9104 15.6367 38.0001 15.8406 38.0939 16.0673ZM37.1098 16.4324C37.015 16.2054 36.9318 16.0191 36.8606 15.8736C36.7887 15.7281 36.7229 15.6099 36.6631 15.5187C36.6032 15.4275 36.5459 15.3576 36.49 15.3097C36.4341 15.2603 36.3726 15.2201 36.3051 15.1888C36.2026 15.139 36.0883 15.1115 35.9629 15.1035C35.837 15.0959 35.706 15.1179 35.5691 15.1691C35.4325 15.2193 35.3196 15.2884 35.2333 15.3742C35.1466 15.4609 35.0809 15.555 35.0372 15.6587C35.0107 15.7257 34.9942 15.7949 34.989 15.8662C34.9832 15.9375 34.9913 16.0257 35.0132 16.131C35.0356 16.2361 35.0741 16.3644 35.129 16.5164C35.1844 16.6683 35.2592 16.858 35.3542 17.0851C35.4486 17.3121 35.5304 17.499 35.6 17.6451C35.6691 17.7921 35.7335 17.9095 35.7923 17.9986C35.8511 18.0877 35.908 18.1562 35.9633 18.2046C36.0196 18.2539 36.0811 18.2933 36.1492 18.3253C36.2556 18.3724 36.3728 18.4015 36.4999 18.4109C36.6264 18.4207 36.7579 18.4 36.8953 18.3488C37.0318 18.298 37.1434 18.2291 37.2291 18.1402C37.3144 18.0517 37.3771 17.9564 37.4162 17.8548C37.4432 17.7882 37.4593 17.7191 37.4651 17.6478C37.4705 17.5761 37.4632 17.489 37.4419 17.3861C37.421 17.2835 37.3842 17.1562 37.3314 17.0031C37.2779 16.8502 37.2044 16.6595 37.1098 16.4324Z" fill="#F8D176"/>
<path d="M43.0781 17.3828L40.1232 14.8994L41.0101 17.923L39.9911 18.1893L38.5452 13.2627L39.4551 13.0254L42.408 15.5023L41.5227 12.4855L42.5427 12.2197L43.988 17.1455L43.0781 17.3828Z" fill="#F8D176"/>
<path d="M45.0757 16.983L44.2966 11.9244L47.8284 11.4404L47.964 12.3215L45.4792 12.6621L45.6614 13.848L47.7781 13.5586L47.913 14.4387L45.7974 14.7289L45.9868 15.9584L48.472 15.6178L48.6081 16.4982L45.0757 16.983Z" fill="#F8D176"/>
<path d="M55.0997 12.8324C55.0987 13.0482 55.0573 13.2523 54.9751 13.4459C54.8931 13.6398 54.7759 13.809 54.6231 13.9545C54.4703 14.0998 54.2817 14.2143 54.0583 14.2969C53.8345 14.3805 53.5836 14.4213 53.3051 14.4203L52.2619 14.416L52.254 16.3402L51.1965 16.3367L51.2174 11.2246L53.3176 11.2324C53.5966 11.2334 53.848 11.2762 54.0712 11.3607C54.2939 11.4449 54.4809 11.5611 54.6326 11.7072C54.784 11.8541 54.9003 12.0244 54.9804 12.2184C55.061 12.4131 55.1003 12.6166 55.0997 12.8324ZM54.0418 12.8289C54.043 12.6184 53.9737 12.448 53.8347 12.3186C53.6958 12.1887 53.5043 12.1229 53.2611 12.1227L52.2714 12.1187L52.2661 13.5182L53.2557 13.5221C53.4985 13.5229 53.6906 13.4604 53.8304 13.3342C53.9701 13.208 54.0409 13.0395 54.0418 12.8289Z" fill="#F8D176"/>
<path d="M55.833 16.415L56.4404 11.3359L59.9867 11.7129L59.8811 12.5975L57.3855 12.3324L57.2435 13.5238L59.3683 13.7494L59.2623 14.6344L57.1373 14.4082L56.9899 15.6424L59.4855 15.9074L59.3799 16.7924L55.833 16.415Z" fill="#F8D176"/>
<path d="M63.3764 17.6063L62.0365 14.0928L61.2862 17.1498L60.2554 16.9244L61.4781 11.9443L62.3971 12.1453L63.7395 15.6518L64.4879 12.6023L65.5187 12.8277L64.2964 17.8074L63.3764 17.6063Z" fill="#F8D176"/>
<path d="M68.3641 19.1457L67.4944 15.5037L66.3493 18.449L65.356 18.1049L67.2223 13.3066L68.1078 13.6135L68.9798 17.2492L70.1228 14.3102L71.1158 14.6543L69.2494 19.4535L68.3641 19.1457Z" fill="#F8D176"/>
<path d="M73.1097 18.8947L72.117 20.7697L71.1772 20.3275L72.17 18.4518L72.1408 15.0684L73.1685 15.5523L73.0987 17.8223L74.9665 16.3988L75.9942 16.8828L73.1097 18.8947Z" fill="#F8D176"/>
<path d="M68.569 84.502C68.4741 84.2744 68.3918 84.068 68.3232 83.8828C68.2541 83.698 68.204 83.5223 68.1731 83.3561C68.1423 83.1908 68.1338 83.0301 68.1489 82.8756C68.1632 82.7215 68.2091 82.5598 68.2864 82.3922C68.3893 82.1688 68.5313 81.9734 68.7122 81.8059C68.8932 81.6391 69.1304 81.5006 69.4232 81.3922C69.7155 81.2838 69.9896 81.2322 70.2455 81.2377C70.5016 81.2432 70.7476 81.2938 70.985 81.3912C71.162 81.4647 71.3119 81.5527 71.4343 81.6566C71.557 81.76 71.6657 81.8834 71.7597 82.0258C71.8552 82.1682 71.9436 82.3291 72.0268 82.5088C72.1107 82.6893 72.1991 82.8926 72.2941 83.1199C72.3885 83.3469 72.4703 83.5529 72.539 83.7381C72.6086 83.9236 72.6595 84.0986 72.6932 84.2639C72.7264 84.4281 72.7363 84.5883 72.721 84.743C72.7067 84.8977 72.6603 85.0588 72.5835 85.2262C72.4802 85.4496 72.3374 85.6453 72.1535 85.8141C71.9703 85.9822 71.7324 86.1203 71.4392 86.2287C71.1465 86.3377 70.8734 86.3887 70.62 86.3822C70.3672 86.3762 70.1215 86.3248 69.8847 86.2275C69.7072 86.1547 69.5571 86.0656 69.435 85.9621C69.3126 85.8582 69.2033 85.7354 69.1058 85.5941C69.0087 85.4527 68.9184 85.2918 68.8352 85.1125C68.7524 84.9324 68.663 84.7285 68.569 84.502ZM69.553 84.1367C69.6478 84.3637 69.731 84.55 69.8023 84.6955C69.8741 84.841 69.9399 84.9592 69.9998 85.0504C70.0596 85.1416 70.1169 85.2115 70.1728 85.2596C70.2287 85.309 70.2902 85.3492 70.3577 85.3805C70.4602 85.4305 70.5745 85.4578 70.6999 85.4658C70.8258 85.4734 70.9569 85.4516 71.0937 85.4002C71.2301 85.35 71.343 85.2809 71.4295 85.1951C71.5165 85.1084 71.5819 85.0143 71.6256 84.9105C71.6521 84.8436 71.6686 84.7744 71.674 84.7031C71.6798 84.6318 71.6717 84.5436 71.6498 84.4385C71.6274 84.3332 71.5889 84.2051 71.5341 84.0531C71.4788 83.9012 71.4038 83.7115 71.3088 83.4844C71.2144 83.2574 71.1326 83.0705 71.0631 82.9244C70.9939 82.7773 70.9295 82.6602 70.8707 82.5709C70.8119 82.4818 70.755 82.4133 70.6997 82.3648C70.6434 82.3156 70.5819 82.2762 70.5138 82.2441C70.4074 82.1971 70.2902 82.168 70.1631 82.1586C70.0366 82.1488 69.9051 82.1695 69.7677 82.2207C69.6312 82.2715 69.5197 82.3404 69.4339 82.4293C69.3486 82.5178 69.2859 82.6131 69.2466 82.7147C69.2197 82.7813 69.2035 82.8504 69.1977 82.9217C69.1923 82.9934 69.1996 83.0805 69.2209 83.1834C69.2418 83.2859 69.2787 83.4133 69.3315 83.5664C69.3851 83.7189 69.4586 83.9098 69.553 84.1367Z" fill="#F8D176"/>
<path d="M63.5845 83.1863L66.5394 85.6697L65.6525 82.6461L66.6715 82.3799L68.1174 87.3064L67.2075 87.5437L64.2546 85.0668L65.1399 88.0836L64.1198 88.3494L62.6746 83.4236L63.5845 83.1863Z" fill="#F8D176"/>
<path d="M61.5873 83.585L62.3664 88.6436L58.8346 89.1275L58.699 88.2465L61.1838 87.9059L61.0016 86.7199L58.8849 87.0094L58.7499 86.1293L60.8656 85.8391L60.6762 84.6096L58.191 84.9502L58.0549 84.0697L61.5873 83.585Z" fill="#F8D176"/>
<path d="M51.563 87.7361C51.564 87.5203 51.6054 87.3162 51.6876 87.1227C51.7696 86.9287 51.8868 86.7596 52.0396 86.6143C52.1924 86.4689 52.381 86.3545 52.6044 86.2719C52.8282 86.1883 53.0791 86.1475 53.3575 86.1484L54.4006 86.1527L54.4084 84.2285L55.4659 84.232L55.445 89.3441L53.3449 89.3363C53.0658 89.3354 52.8145 89.2926 52.5913 89.208C52.3685 89.1238 52.1816 89.0076 52.0298 88.8615C51.8785 88.7147 51.7622 88.5443 51.682 88.3504C51.6019 88.1555 51.5626 87.952 51.563 87.7361ZM52.6211 87.7397C52.6199 87.9502 52.6892 88.1205 52.8282 88.25C52.9671 88.3799 53.1586 88.4457 53.4018 88.4459L54.3914 88.4498L54.3968 87.0504L53.4072 87.0465C53.1646 87.0457 52.9723 87.1082 52.8325 87.2344C52.6926 87.3605 52.6218 87.5291 52.6211 87.7397Z" fill="#F8D176"/>
<path d="M50.8299 84.1537L50.2225 89.2328L46.6763 88.8559L46.7819 87.9713L49.2774 88.2363L49.4194 87.0449L47.2945 86.8193L47.4005 85.9344L49.5254 86.1605L49.6728 84.9264L47.1773 84.6613L47.2829 83.7764L50.8299 84.1537Z" fill="#F8D176"/>
<path d="M43.2866 82.9619L44.6266 86.4754L45.3768 83.4184L46.4076 83.6437L45.1849 88.6238L44.2659 88.4228L42.9235 84.9164L42.1751 87.9658L41.1443 87.7404L42.3666 82.7607L43.2866 82.9619Z" fill="#F8D176"/>
<path d="M38.2987 81.4223L39.1682 85.0643L40.3133 82.1189L41.3067 82.4631L39.4403 87.2613L38.5548 86.9545L37.6826 83.3186L36.5396 86.2576L35.5466 85.9135L37.413 81.1143L38.2987 81.4223Z" fill="#F8D176"/>
<path d="M33.553 81.6738L34.5457 79.7988L35.4855 80.241L34.4927 82.1168L34.5219 85.5002L33.4942 85.0162L33.564 82.7463L31.6962 84.1697L30.6685 83.6857L33.553 81.6738Z" fill="#F8D176"/>
<path d="M68.7049 53.5678C68.1586 52.0613 67.275 50.7928 66.0578 49.7617C65.0891 48.8479 63.9324 48.135 62.5876 47.6193C61.2427 47.1039 59.5395 46.7055 57.478 46.4275L57.0805 46.3705L52.1163 45.6541C51.1512 45.5369 50.3421 45.3361 49.6893 45.0582C49.416 44.9443 49.1606 44.8172 48.9194 44.6801C48.5858 44.4893 48.2877 44.2783 48.0182 44.0473C47.5534 43.6121 47.2304 43.1367 47.0389 42.6213C46.8509 42.1059 46.7551 41.5701 46.7551 41.0145C46.7551 39.5449 47.3122 38.2863 48.4264 37.2352C48.579 37.0912 48.7422 36.9572 48.9196 36.8367C50.0268 36.05 51.5986 35.6584 53.6318 35.6584C54.7353 35.6584 55.8849 35.7522 57.0807 35.943C57.4816 36.0066 57.8863 36.0803 58.2979 36.1639C59.9372 36.502 61.4524 37.3053 62.8397 38.574L68.3894 33.3955C66.4555 31.6113 64.3337 30.3426 62.0201 29.5895C60.5369 29.1074 58.8871 28.776 57.0772 28.6053C56.0661 28.5049 55.0015 28.458 53.8838 28.458C52.0954 28.458 50.4384 28.6287 48.9196 28.9736C48.3695 29.0975 47.8374 29.2414 47.3227 29.4121C45.3889 30.0447 43.7496 30.9285 42.4047 32.0566C41.0598 33.1881 40.0272 34.5371 39.3142 36.1037C38.5974 37.6703 38.2426 39.4078 38.2426 41.3125C38.2426 44.9211 39.3142 47.6994 41.4573 49.641C42.4687 50.5549 43.6643 51.298 45.0518 51.8738C46.1483 52.3258 47.4327 52.6873 48.9194 52.9518C49.3204 53.0254 49.732 53.0924 50.1614 53.1525L55.5228 53.9258C56.1259 54.0094 56.6441 54.0998 57.0805 54.1936C57.4673 54.2807 57.7902 54.3676 58.0457 54.4613C58.5921 54.6588 59.096 54.9568 59.5608 55.3518C60.4833 56.2254 60.9481 57.3971 60.9481 58.8633C60.9481 60.5705 60.274 61.8793 58.9291 62.7898C58.4111 63.1447 57.7938 63.4293 57.0805 63.6434C55.9452 63.9881 54.5649 64.1588 52.9362 64.1588C51.5524 64.1588 50.211 64.0416 48.9194 63.8072C48.2912 63.6934 47.6774 63.5527 47.0708 63.3854C45.2222 62.8699 43.5827 61.9393 42.1528 60.5902L36.4753 65.9428C38.6612 68.0482 41.0882 69.5045 43.7601 70.318C45.3497 70.8033 47.0708 71.1414 48.9231 71.3355C50.1792 71.4695 51.4992 71.5365 52.8759 71.5365C54.3378 71.5365 55.7394 71.426 57.0807 71.2018C57.8969 71.0678 58.6917 70.8904 59.4651 70.6729C61.5054 70.1004 63.2689 69.267 64.7628 68.1756C66.2568 67.0844 67.424 65.7453 68.2652 64.1586C69.1062 62.5719 69.525 60.7475 69.525 58.6855C69.5246 56.7814 69.2513 55.0775 68.7049 53.5678Z" fill="#D9AE56"/>
<path d="M57.0806 28.7432V35.9436C55.8848 35.7527 54.7351 35.659 53.6317 35.659C51.5984 35.659 50.0266 36.0506 48.9194 36.8373V28.7432C48.9194 26.6242 50.7575 24.8936 53 24.8936C54.1213 24.8936 55.1432 25.3254 55.8813 26.025C56.591 26.6912 57.0417 27.6016 57.0771 28.6059C57.0806 28.6527 57.0806 28.6963 57.0806 28.7432Z" fill="#D9AE56"/>
<path d="M57.0806 46.3711V54.1941C56.6442 54.1004 56.1262 54.01 55.5229 53.9264L50.1614 53.1531C49.732 53.0928 49.3205 53.026 48.9194 52.9523V44.6807C49.1606 44.818 49.4161 44.9451 49.6894 45.0588C50.3424 45.3367 51.1512 45.5375 52.1164 45.6547L57.0806 46.3711Z" fill="#D9AE56"/>
<path d="M52.9363 64.159C54.565 64.159 55.9452 63.9883 57.0806 63.6436V71.2557C57.0806 73.3713 55.2461 75.1053 53 75.1053C50.7858 75.1053 48.9656 73.4148 48.923 71.3359C48.9194 71.3092 48.9194 71.2824 48.9194 71.2557V63.8076C50.2111 64.0418 51.5523 64.159 52.9363 64.159Z" fill="#D9AE56"/>
<path d="M13.6565 51.8672C14.7496 51.8672 15.6357 51.0312 15.6357 50C15.6357 48.9688 14.7496 48.1328 13.6565 48.1328C12.5634 48.1328 11.6772 48.9688 11.6772 50C11.6772 51.0312 12.5634 51.8672 13.6565 51.8672Z" fill="#F8D176"/>
<path d="M91.947 51.8672C93.0401 51.8672 93.9262 51.0312 93.9262 50C93.9262 48.9688 93.0401 48.1328 91.947 48.1328C90.8539 48.1328 89.9678 48.9688 89.9678 50C89.9678 51.0312 90.8539 51.8672 91.947 51.8672Z" fill="#F8D176"/>
<path opacity="0.06" d="M53.0249 99.9529C66.597 99.9529 80.1694 95.0795 90.5017 85.332C111.166 65.8371 111.166 34.1162 90.5017 14.6215C80.1692 4.87363 66.597 0 53.0249 0V99.9529Z" fill="#040000"/>
</g>
<defs>
<clipPath id="clip0_121_10516">
<rect width="106" height="100" fill="white"/>
</clipPath>
</defs>
</svg>
