<svg width="106" height="100" viewBox="0 0 106 100" fill="none" xmlns="http://www.w3.org/2000/svg">
<path d="M52.6762 100C81.7684 100 105.352 77.6142 105.352 50C105.352 22.3858 81.7684 0 52.6762 0C23.5839 0 0 22.3858 0 50C0 77.6142 23.5839 100 52.6762 100Z" fill="#3DC463"/>
<path d="M53.2328 99.9936C81.6187 99.7141 104.625 78.1271 105.335 51.2797L65.8792 13.8281L61.1046 34.7766L44.6143 19.124L46.2226 47.5264L34.4783 82.1914L53.2328 99.9936Z" fill="#239E40"/>
<path d="M30.1511 70.7631C30.1511 58.7691 40.3948 49.0459 53.0307 49.0459C65.6666 49.0459 75.9103 58.7691 75.9103 70.7631C75.9103 82.757 65.6666 88.7766 53.0307 88.7766C40.3948 88.7766 30.1511 82.757 30.1511 70.7631Z" fill="#F4E3C3"/>
<path d="M75.9108 70.7631C75.9108 58.7691 65.6676 49.0459 53.0312 49.0459V88.7766C65.6676 88.7762 75.9108 82.757 75.9108 70.7631Z" fill="#FED8B2"/>
<path d="M37.7963 25.8244C38.8082 30.0615 43.747 43.4123 47.1883 45.7689C49.2223 42.234 47.6121 28.167 46.6002 23.9299C45.5882 19.6928 43.0005 16.1848 39.5589 13.8281C37.5249 17.3631 36.7841 21.5873 37.7963 25.8244Z" fill="#E6F3FF"/>
<path d="M39.0411 26.8227C39.7991 29.9965 43.4982 39.9965 46.076 41.7617C47.5995 39.1139 46.3935 28.5771 45.6355 25.4035C44.8775 22.2297 42.9393 19.6021 40.3615 17.8369C38.8382 20.4846 38.2831 23.649 39.0411 26.8227Z" fill="#FF80AA"/>
<path d="M67.6421 25.8244C66.6301 30.0615 61.6913 43.4123 58.2501 45.7689C56.2161 42.234 57.8262 28.167 58.8382 23.9299C59.8501 19.6928 62.4379 16.1848 65.8795 13.8281C67.9131 17.3631 68.6543 21.5873 67.6421 25.8244Z" fill="#CFDBE6"/>
<path d="M66.3969 26.8227C65.6389 29.9965 61.9398 39.9965 59.362 41.7617C57.8385 39.1139 59.0445 28.5771 59.8025 25.4035C60.5606 22.2299 62.4987 19.6021 65.0765 17.8369C66.6002 20.4846 67.155 23.649 66.3969 26.8227Z" fill="#FF6472"/>
<path d="M53.0308 64.8623C61.5527 64.8623 68.4612 58.3048 68.4612 50.2158C68.4612 42.1268 61.5527 35.5693 53.0308 35.5693C44.5088 35.5693 37.6003 42.1268 37.6003 50.2158C37.6003 58.3048 44.5088 64.8623 53.0308 64.8623Z" fill="white"/>
<path d="M68.4617 50.2148C68.4617 42.126 61.5531 35.5684 53.0312 35.5684V64.8613C61.5531 64.8613 68.4617 58.3037 68.4617 50.2148Z" fill="#E6F3FF"/>
<path d="M45.539 53.1637C46.0497 53.1637 46.4637 52.7707 46.4637 52.2859C46.4637 51.8012 46.0497 51.4082 45.539 51.4082C45.0283 51.4082 44.6143 51.8012 44.6143 52.2859C44.6143 52.7707 45.0283 53.1637 45.539 53.1637Z" fill="#324A5E"/>
<path d="M60.5226 53.1637C61.0333 53.1637 61.4473 52.7707 61.4473 52.2859C61.4473 51.8012 61.0333 51.4082 60.5226 51.4082C60.0119 51.4082 59.5979 51.8012 59.5979 52.2859C59.5979 52.7707 60.0119 53.1637 60.5226 53.1637Z" fill="#324A5E"/>
<path d="M55.7723 59.0176C55.7723 59.5957 55.2768 60.0658 54.6677 60.0658C54.0587 60.0658 53.5632 59.5957 53.5632 59.0176V53.1738H52.499V59.0176C52.499 59.5957 52.0037 60.0658 51.3946 60.0658C50.7855 60.0658 50.2901 59.5957 50.2901 59.0176H49.2258C49.2258 60.1525 50.1989 61.0758 51.3946 61.0758C52.0479 61.0758 52.6333 60.799 53.0309 60.3641C53.4288 60.799 54.0142 61.0758 54.6671 61.0758C55.8628 61.0758 56.8359 60.1525 56.8359 59.0176H55.7723Z" fill="#FF80AA"/>
<path d="M55.7725 59.0176C55.7725 59.5957 55.277 60.0658 54.6679 60.0658C54.0588 60.0658 53.5634 59.5957 53.5634 59.0176V53.1738H53.0312V60.3645C53.4292 60.7994 54.0146 61.0762 54.6675 61.0762C55.8632 61.0762 56.8363 60.1529 56.8363 59.018H55.7725V59.0176Z" fill="#FF6472"/>
<path d="M54.5898 52.2943C54.5898 53.1115 53.892 54.2219 53.0311 54.2219C52.1702 54.2219 51.4724 53.1111 51.4724 52.2943C51.4724 51.4771 52.1702 51.532 53.0311 51.532C53.892 51.532 54.5898 51.4775 54.5898 52.2943Z" fill="#FD5790"/>
<path d="M54.5899 52.2943C54.5899 51.4771 53.8922 51.532 53.0312 51.532V54.2219C53.8922 54.2219 54.5899 53.1115 54.5899 52.2943Z" fill="#C75163"/>
</svg>
