<svg width="74" height="68" viewBox="0 0 74 68" fill="none" xmlns="http://www.w3.org/2000/svg">
<path d="M37.665 29.9766C37.665 36.9462 32.015 42.5962 25.0454 42.5962C18.0758 42.5962 12.4258 36.9462 12.4258 29.9766" stroke="#021016" stroke-width="2"/>
<path d="M62.2734 29.9766C62.2734 36.9462 56.6234 42.5962 49.6538 42.5962C42.6842 42.5962 37.0342 36.9462 37.0342 29.9766" stroke="#021016" stroke-width="2"/>
<path d="M43.9752 41.334C43.9752 44.993 41.009 47.9593 37.3499 47.9593C33.6909 47.9593 30.7246 44.993 30.7246 41.334" stroke="#021016" stroke-width="2"/>
<path d="M72.9997 0.321289C72.9997 10.7757 70.1748 19.2507 66.6899 19.2507C63.2051 19.2507 60.3801 10.7757 60.3801 0.321289" stroke="#021016" stroke-width="2"/>
<path d="M13.6877 0.321289C13.6877 10.7757 10.8627 19.2507 7.37793 19.2507C3.89311 19.2507 1.06812 10.7757 1.06812 0.321289" stroke="#021016" stroke-width="2"/>
<path d="M36.1684 25.167C36.5533 24.5003 37.5155 24.5003 37.9004 25.167L41.6329 31.6317C42.0178 32.2984 41.5366 33.1317 40.7668 33.1317H33.302C32.5322 33.1317 32.0511 32.2984 32.436 31.6317L36.1684 25.167Z" fill="#021016"/>
<ellipse cx="23.7837" cy="12.9407" rx="6.30981" ry="6.30981" fill="#021016"/>
<ellipse cx="24.4148" cy="16.7261" rx="2.52393" ry="2.52392" fill="white"/>
<ellipse cx="50.2849" cy="12.9407" rx="6.30981" ry="6.30981" fill="#021016"/>
<ellipse cx="49.0232" cy="16.7261" rx="2.52393" ry="2.52392" fill="white"/>
<path d="M70.1603 3.79144C70.1603 5.18537 68.0839 6.63086 66.6899 6.63086C65.296 6.63086 64.166 5.50086 64.166 4.10693C64.166 2.71301 65.296 1.58301 66.6899 1.58301C68.0839 1.58301 70.1603 2.39752 70.1603 3.79144Z" fill="#021016"/>
<path d="M71.7382 11.0488C71.7382 12.4427 71.5547 12.6262 70.1607 12.6262C68.7668 12.6262 67.9524 12.7582 67.9524 11.3643C67.9524 9.97036 68.4514 8.52487 69.8453 8.52487C73.3157 6.94723 71.7382 9.65487 71.7382 11.0488Z" fill="#021016"/>
<path d="M13.6878 5.99981C13.6878 7.39374 12.5578 8.52374 11.1638 8.52374C9.7699 8.52374 10.8483 5.81629 10.8483 4.42236C10.8483 3.02844 10.7164 1.89844 12.1103 1.89844C13.5042 1.89844 13.6878 4.60589 13.6878 5.99981Z" fill="#021016"/>
<path d="M8.63982 12.3091C8.63982 13.7031 9.08728 15.464 7.69336 15.464C6.29943 15.464 5.16943 14.334 5.16943 12.9401C5.16943 11.5462 6.61492 9.46973 8.00884 9.46973C9.40277 9.46973 8.63982 10.9152 8.63982 12.3091Z" fill="#021016"/>
<path d="M3.90782 4.10601C3.90782 5.49994 4.03978 6.94549 2.64585 6.94549C1.25193 6.94549 1.0684 5.49994 1.0684 4.10601C1.0684 2.71209 0.620948 0.951172 2.01487 0.951172C3.4088 0.951172 3.90782 2.71209 3.90782 4.10601Z" fill="#021016"/>
<path d="M37.665 29.6562C37.665 36.6259 32.015 42.2759 25.0454 42.2759C18.0758 42.2759 12.4258 36.6259 12.4258 29.6562" stroke="#2D3335" stroke-width="2"/>
<path d="M62.2739 29.6562C62.2739 36.6259 56.6239 42.2759 49.6543 42.2759C42.6847 42.2759 37.0347 36.6259 37.0347 29.6562" stroke="#2D3335" stroke-width="2"/>
<path d="M43.9752 41.0137C43.9752 44.6727 41.009 47.639 37.3499 47.639C33.6909 47.639 30.7246 44.6727 30.7246 41.0137" stroke="#2D3335" stroke-width="2"/>
<path d="M72.9997 0C72.9997 10.4544 70.1748 18.9294 66.6899 18.9294C63.2051 18.9294 60.3801 10.4544 60.3801 0" stroke="#2D3335" stroke-width="2"/>
<path d="M13.6868 0C13.6868 10.4544 10.8618 18.9294 7.37695 18.9294C3.89214 18.9294 1.06714 10.4544 1.06714 0" stroke="#2D3335" stroke-width="2"/>
<path d="M36.1684 24.8457C36.5533 24.179 37.5155 24.179 37.9004 24.8457L41.6329 31.3104C42.0178 31.9771 41.5366 32.8104 40.7668 32.8104H33.302C32.5322 32.8104 32.0511 31.9771 32.436 31.3104L36.1684 24.8457Z" fill="#2D3335"/>
<ellipse cx="23.783" cy="12.6204" rx="6.30981" ry="6.30981" fill="#2D3335"/>
<ellipse cx="24.4141" cy="16.4067" rx="2.52393" ry="2.52392" fill="white"/>
<ellipse cx="50.2844" cy="12.6204" rx="6.30981" ry="6.30981" fill="#2D3335"/>
<ellipse cx="49.0217" cy="16.4067" rx="2.52393" ry="2.52392" fill="white"/>
<path d="M70.1608 3.47015C70.1608 4.86408 68.0844 6.30957 66.6904 6.30957C65.2965 6.30957 64.1665 5.17957 64.1665 3.78564C64.1665 2.39172 65.2965 1.26172 66.6904 1.26172C68.0844 1.26172 70.1608 2.07623 70.1608 3.47015Z" fill="#2D3335"/>
<path d="M71.7387 10.7275C71.7387 12.1214 71.5551 12.305 70.1612 12.305C68.7673 12.305 67.9529 12.4369 67.9529 11.043C67.9529 9.64907 68.4519 8.20358 69.8458 8.20358C73.3162 6.62594 71.7387 9.33358 71.7387 10.7275Z" fill="#2D3335"/>
<path d="M13.6882 5.6795C13.6882 7.07343 12.5582 8.20343 11.1643 8.20343C9.77039 8.20343 10.8488 5.49597 10.8488 4.10205C10.8488 2.70812 10.7169 1.57812 12.1108 1.57812C13.5047 1.57812 13.6882 4.28558 13.6882 5.6795Z" fill="#2D3335"/>
<path d="M8.63982 11.9888C8.63982 13.3828 9.08728 15.1437 7.69336 15.1437C6.29943 15.1437 5.16943 14.0137 5.16943 12.6198C5.16943 11.2259 6.61492 9.14941 8.00884 9.14941C9.40277 9.14941 8.63982 10.5949 8.63982 11.9888Z" fill="#2D3335"/>
<path d="M3.90782 3.7857C3.90782 5.17962 4.03978 6.62518 2.64585 6.62518C1.25193 6.62518 1.0684 5.17962 1.0684 3.7857C1.0684 2.39177 0.620948 0.630859 2.01487 0.630859C3.4088 0.630859 3.90782 2.39177 3.90782 3.7857Z" fill="#2D3335"/>
<path d="M35.8869 60.1075C36.3817 59.2503 37.6189 59.2503 38.1138 60.1075L39.2273 62.036C39.7221 62.8932 39.1035 63.9646 38.1138 63.9646H35.8869C34.8971 63.9646 34.2785 62.8932 34.7734 62.036L35.8869 60.1075Z" fill="#021016"/>
<path d="M4.54688 67.1789V55.9581H8.97384C9.8249 55.9581 10.5499 56.1206 11.149 56.4457C11.748 56.7672 12.2046 57.2146 12.5187 57.7881C12.8365 58.3579 12.9954 59.0153 12.9954 59.7605C12.9954 60.5056 12.8346 61.1631 12.5132 61.7329C12.1918 62.3027 11.7261 62.7465 11.1161 63.0643C10.5098 63.382 9.77559 63.5409 8.91357 63.5409H6.09193V61.6397H8.53005C8.98662 61.6397 9.36284 61.5612 9.6587 61.4041C9.95822 61.2434 10.181 61.0224 10.3271 60.7412C10.4769 60.4563 10.5518 60.1294 10.5518 59.7605C10.5518 59.3879 10.4769 59.0628 10.3271 58.7852C10.181 58.504 9.95822 58.2866 9.6587 58.1332C9.35919 57.9762 8.97932 57.8976 8.51909 57.8976H6.91925V67.1789H4.54688Z" fill="#021016"/>
<path d="M14.5363 67.1789V55.9581H22.0972V57.9141H16.9087V60.5878H21.7082V62.5438H16.9087V65.2229H22.1191V67.1789H14.5363Z" fill="#021016"/>
<path d="M23.556 57.9141V55.9581H32.7715V57.9141H29.3362V67.1789H26.9913V57.9141H23.556Z" fill="#021016"/>
<path d="M41.0036 57.9141V55.9581H50.2191V57.9141H46.7838V67.1789H44.4389V57.9141H41.0036Z" fill="#021016"/>
<path d="M61.5358 61.5685C61.5358 62.7921 61.3039 63.8331 60.84 64.6915C60.3798 65.5499 59.7515 66.2055 58.9552 66.6584C58.1626 67.1077 57.2714 67.3323 56.2815 67.3323C55.2844 67.3323 54.3895 67.1059 53.5969 66.6529C52.8043 66.2 52.1778 65.5444 51.7176 64.686C51.2574 63.8276 51.0273 62.7885 51.0273 61.5685C51.0273 60.3449 51.2574 59.3039 51.7176 58.4455C52.1778 57.5872 52.8043 56.9333 53.5969 56.4841C54.3895 56.0311 55.2844 55.8047 56.2815 55.8047C57.2714 55.8047 58.1626 56.0311 58.9552 56.4841C59.7515 56.9333 60.3798 57.5872 60.84 58.4455C61.3039 59.3039 61.5358 60.3449 61.5358 61.5685ZM59.1306 61.5685C59.1306 60.7759 59.0119 60.1075 58.7744 59.5632C58.5407 59.019 58.2101 58.6062 57.7828 58.325C57.3554 58.0437 56.855 57.9031 56.2815 57.9031C55.7081 57.9031 55.2077 58.0437 54.7803 58.325C54.353 58.6062 54.0206 59.019 53.7831 59.5632C53.5494 60.1075 53.4325 60.7759 53.4325 61.5685C53.4325 62.3611 53.5494 63.0296 53.7831 63.5738C54.0206 64.118 54.353 64.5308 54.7803 64.812C55.2077 65.0933 55.7081 65.2339 56.2815 65.2339C56.855 65.2339 57.3554 65.0933 57.7828 64.812C58.2101 64.5308 58.5407 64.118 58.7744 63.5738C59.0119 63.0296 59.1306 62.3611 59.1306 61.5685Z" fill="#021016"/>
<path d="M63.2932 67.1789V55.9581H67.7201C68.5712 55.9581 69.2962 56.1206 69.8953 56.4457C70.4943 56.7672 70.9509 57.2146 71.265 57.7881C71.5828 58.3579 71.7417 59.0153 71.7417 59.7605C71.7417 60.5056 71.581 61.1631 71.2595 61.7329C70.9381 62.3027 70.4724 62.7465 69.8624 63.0643C69.2561 63.382 68.5219 63.5409 67.6599 63.5409H64.8382V61.6397H67.2764C67.7329 61.6397 68.1091 61.5612 68.405 61.4041C68.7045 61.2434 68.9273 61.0224 69.0734 60.7412C69.2232 60.4563 69.2981 60.1294 69.2981 59.7605C69.2981 59.3879 69.2232 59.0628 69.0734 58.7852C68.9273 58.504 68.7045 58.2866 68.405 58.1332C68.1055 57.9762 67.7256 57.8976 67.2654 57.8976H65.6655V67.1789H63.2932Z" fill="#021016"/>
<path d="M35.8869 58.8213C36.3817 57.9642 37.6189 57.9642 38.1138 58.8213L39.2273 60.7499C39.7221 61.6071 39.1035 62.6785 38.1138 62.6785H35.8869C34.8971 62.6785 34.2785 61.6071 34.7734 60.7499L35.8869 58.8213Z" fill="#2D3335"/>
<path d="M4.54688 65.8928V54.672H8.97384C9.8249 54.672 10.5499 54.8345 11.149 55.1596C11.748 55.481 12.2046 55.9285 12.5187 56.5019C12.8365 57.0717 12.9954 57.7292 12.9954 58.4743C12.9954 59.2195 12.8346 59.8769 12.5132 60.4467C12.1918 61.0165 11.7261 61.4603 11.1161 61.7781C10.5098 62.0959 9.77559 62.2548 8.91357 62.2548H6.09193V60.3536H8.53005C8.98662 60.3536 9.36284 60.2751 9.6587 60.118C9.95822 59.9573 10.181 59.7363 10.3271 59.4551C10.4769 59.1702 10.5518 58.8432 10.5518 58.4743C10.5518 58.1018 10.4769 57.7767 10.3271 57.4991C10.181 57.2178 9.95822 57.0005 9.6587 56.8471C9.35919 56.69 8.97932 56.6115 8.51909 56.6115H6.91925V65.8928H4.54688Z" fill="#2D3335"/>
<path d="M14.5363 65.8928V54.672H22.0972V56.6279H16.9087V59.3016H21.7082V61.2576H16.9087V63.9368H22.1191V65.8928H14.5363Z" fill="#2D3335"/>
<path d="M23.556 56.6279V54.672H32.7715V56.6279H29.3362V65.8928H26.9913V56.6279H23.556Z" fill="#2D3335"/>
<path d="M41.0036 56.6279V54.672H50.2191V56.6279H46.7838V65.8928H44.4389V56.6279H41.0036Z" fill="#2D3335"/>
<path d="M61.5358 60.2824C61.5358 61.506 61.3039 62.547 60.84 63.4054C60.3798 64.2637 59.7515 64.9194 58.9552 65.3723C58.1626 65.8216 57.2714 66.0462 56.2815 66.0462C55.2844 66.0462 54.3895 65.8197 53.5969 65.3668C52.8043 64.9139 52.1778 64.2582 51.7176 63.3999C51.2574 62.5415 51.0273 61.5023 51.0273 60.2824C51.0273 59.0588 51.2574 58.0178 51.7176 57.1594C52.1778 56.301 52.8043 55.6472 53.5969 55.1979C54.3895 54.745 55.2844 54.5186 56.2815 54.5186C57.2714 54.5186 58.1626 54.745 58.9552 55.1979C59.7515 55.6472 60.3798 56.301 60.84 57.1594C61.3039 58.0178 61.5358 59.0588 61.5358 60.2824ZM59.1306 60.2824C59.1306 59.4898 59.0119 58.8213 58.7744 58.2771C58.5407 57.7329 58.2101 57.3201 57.7828 57.0389C57.3554 56.7576 56.855 56.617 56.2815 56.617C55.7081 56.617 55.2077 56.7576 54.7803 57.0389C54.353 57.3201 54.0206 57.7329 53.7831 58.2771C53.5494 58.8213 53.4325 59.4898 53.4325 60.2824C53.4325 61.075 53.5494 61.7434 53.7831 62.2877C54.0206 62.8319 54.353 63.2446 54.7803 63.5259C55.2077 63.8071 55.7081 63.9478 56.2815 63.9478C56.855 63.9478 57.3554 63.8071 57.7828 63.5259C58.2101 63.2446 58.5407 62.8319 58.7744 62.2877C59.0119 61.7434 59.1306 61.075 59.1306 60.2824Z" fill="#2D3335"/>
<path d="M63.2932 65.8928V54.672H67.7201C68.5712 54.672 69.2962 54.8345 69.8953 55.1596C70.4943 55.481 70.9509 55.9285 71.265 56.5019C71.5828 57.0717 71.7417 57.7292 71.7417 58.4743C71.7417 59.2195 71.581 59.8769 71.2595 60.4467C70.9381 61.0165 70.4724 61.4603 69.8624 61.7781C69.2561 62.0959 68.5219 62.2548 67.6599 62.2548H64.8382V60.3536H67.2764C67.7329 60.3536 68.1091 60.2751 68.405 60.118C68.7045 59.9573 68.9273 59.7363 69.0734 59.4551C69.2232 59.1702 69.2981 58.8432 69.2981 58.4743C69.2981 58.1018 69.2232 57.7767 69.0734 57.4991C68.9273 57.2178 68.7045 57.0005 68.405 56.8471C68.1055 56.69 67.7256 56.6115 67.2654 56.6115H65.6655V65.8928H63.2932Z" fill="#2D3335"/>
</svg>
