<svg width="30" height="30" viewBox="0 0 30 30" fill="none" xmlns="http://www.w3.org/2000/svg">
<path d="M15 0C18.9782 0 22.7936 1.58035 25.6066 4.3934C28.4196 7.20644 30 11.0218 30 15C30 18.9782 28.4196 22.7936 25.6066 25.6066C22.7936 28.4196 18.9782 30 15 30C11.0218 30 7.20644 28.4196 4.3934 25.6066C1.58035 22.7936 0 18.9782 0 15C0 11.0218 1.58035 7.20644 4.3934 4.3934C7.20644 1.58035 11.0218 0 15 0ZM7.5 15C7.5 15.341 7.63546 15.668 7.87658 15.9091C8.11769 16.1503 8.44472 16.2857 8.78571 16.2857H21.2143C21.5553 16.2857 21.8823 16.1503 22.1234 15.9091C22.3645 15.668 22.5 15.341 22.5 15C22.5 14.659 22.3645 14.332 22.1234 14.0909C21.8823 13.8497 21.5553 13.7143 21.2143 13.7143H8.78571C8.61687 13.7143 8.44968 13.7475 8.29369 13.8122C8.1377 13.8768 7.99597 13.9715 7.87658 14.0909C7.75719 14.2103 7.66248 14.352 7.59787 14.508C7.53326 14.664 7.5 14.8312 7.5 15Z" fill="white"/>
</svg>
