<svg width="40" height="40" viewBox="0 0 40 40" fill="none" xmlns="http://www.w3.org/2000/svg">
<path d="M35.2514 19.9994L38.0847 15.7494C38.2156 15.5403 38.2984 15.3048 38.3272 15.0598C38.3561 14.8148 38.3301 14.5665 38.2514 14.3327C38.1798 14.0966 38.051 13.8819 37.8766 13.7075C37.7022 13.533 37.4874 13.4043 37.2514 13.3327L32.3347 11.3327L31.918 6.41604C31.9106 6.17903 31.855 5.94602 31.7547 5.73114C31.6544 5.51626 31.5115 5.324 31.3347 5.16604C31.1322 5.02121 30.8999 4.92359 30.6547 4.88032C30.4096 4.83706 30.1578 4.84927 29.918 4.91604L24.668 5.99937L21.2514 2.16604C20.912 1.84972 20.4653 1.67383 20.0014 1.67383C19.5374 1.67383 19.0907 1.84972 18.7514 2.16604L15.3347 5.99937L10.0847 4.91604C9.84488 4.84927 9.59315 4.83706 9.348 4.88032C9.10285 4.92359 8.8705 5.02121 8.66803 5.16604C8.49118 5.324 8.34828 5.51626 8.24801 5.73114C8.14773 5.94602 8.09217 6.17903 8.0847 6.41604L7.66803 11.3327L2.75136 13.3327C2.5153 13.4043 2.30055 13.533 2.12612 13.7075C1.95169 13.8819 1.82297 14.0966 1.75136 14.3327C1.67257 14.5665 1.64666 14.8148 1.67548 15.0598C1.7043 15.3048 1.78714 15.5403 1.91803 15.7494L4.75136 19.9994L1.91803 24.2494C1.79231 24.4582 1.71392 24.692 1.68839 24.9344C1.66286 25.1769 1.69081 25.4219 1.77027 25.6523C1.84973 25.8828 1.97876 26.093 2.14827 26.2681C2.31779 26.4433 2.52365 26.5791 2.75136 26.666L7.66803 28.666L8.0847 33.5827C8.09217 33.8197 8.14773 34.0527 8.24801 34.2676C8.34828 34.4825 8.49118 34.6747 8.66803 34.8327C8.8705 34.9775 9.10285 35.0752 9.348 35.1184C9.59315 35.1617 9.84488 35.1495 10.0847 35.0827L15.3347 33.9994L18.7514 37.7494C18.9078 37.9267 19.1001 38.0688 19.3156 38.166C19.5312 38.2633 19.7649 38.3136 20.0014 38.3136C20.2378 38.3136 20.4716 38.2633 20.6871 38.166C20.9026 38.0688 21.095 37.9267 21.2514 37.7494L24.668 33.9994L29.918 35.0827C30.1578 35.1495 30.4096 35.1617 30.6547 35.1184C30.8999 35.0752 31.1322 34.9775 31.3347 34.8327C31.5115 34.6747 31.6544 34.4825 31.7547 34.2676C31.855 34.0527 31.9106 33.8197 31.918 33.5827L32.3347 28.666L37.2514 26.666C37.4791 26.5791 37.6849 26.4433 37.8545 26.2681C38.024 26.093 38.153 25.8828 38.2325 25.6523C38.3119 25.4219 38.3399 25.1769 38.3143 24.9344C38.2888 24.692 38.2104 24.4582 38.0847 24.2494L35.2514 19.9994ZM15.0014 25.916L11.5014 23.2494L10.5847 22.4994H10.5014L11.0014 23.666L12.418 26.9994L10.668 27.666L7.75136 20.4994L9.50136 19.8327L13.0847 22.4994L14.0014 23.2494C13.8568 22.8785 13.6898 22.5167 13.5014 22.166L12.168 18.7494L13.918 17.9994L16.8347 25.166L15.0014 25.916ZM17.7514 24.8327L14.8347 17.5827L20.3347 15.416L20.918 16.916L17.2514 18.3327L17.7514 19.666L20.918 18.3327L21.5014 19.7494L18.3347 20.9994L18.918 22.5827L22.668 21.0827L23.2514 22.5827L17.7514 24.8327ZM29.3347 20.0827L27.168 16.9994L26.418 15.7494H26.3347C26.4738 16.2146 26.5851 16.6876 26.668 17.166L27.3347 20.916L25.5847 21.666L20.668 15.2494L22.5014 14.4994L24.418 17.2494L25.5014 18.916C25.357 18.2834 25.2458 17.6436 25.168 16.9994L24.5847 13.666L26.2514 12.9994L28.168 15.8327L29.168 17.416C29.168 17.416 29.0014 16.2494 28.8347 15.416L28.3347 12.166L30.0847 11.416L31.0847 19.416L29.3347 20.0827Z" fill="#F9D923"/>
</svg>
