<svg width="26" height="32" viewBox="0 0 26 32" fill="none" xmlns="http://www.w3.org/2000/svg">
<path fill-rule="evenodd" clip-rule="evenodd" d="M10.4645 22.2085C9.60985 26.615 8.5049 29.7925 5.41785 32.0005C4.46352 25.3426 6.81834 20.343 7.91009 15.031C6.04657 11.9459 8.13409 5.73411 12.0607 7.26257C16.8927 9.14681 8.22445 18.2856 14.2781 19.4847C20.599 20.7346 22.8616 9.94869 18.9445 6.02964C13.2823 0.371272 2.00139 5.16939 3.75762 13.192C4.46539 16.4259 2.05785 17.3463 2.05785 17.3463C0.107735 16.5558 -0.0785982 13.8188 0.0211518 11.1478C0.245152 5.00562 5.6249 0.704456 11.0216 0.107756C17.847 -0.645194 24.2527 2.57552 25.1355 8.90022C26.1332 16.0362 22.1859 24.2339 14.8861 23.6767C12.9096 23.5261 10.4645 22.2085 10.4645 22.2085Z" fill="#F9D923"/>
</svg>
